<?xml version="1.0" encoding="UTF-8" standalone="no"?>
<svg width="108px" height="99px" viewBox="0 0 108 99" version="1.1" xmlns="http://www.w3.org/2000/svg" xmlns:xlink="http://www.w3.org/1999/xlink">
    <!-- Generator: Sketch 39.1 (31720) - http://www.bohemiancoding.com/sketch -->
    <title>Images/17000000</title>
    <desc>Created with Sketch.</desc>
    <defs>
        <path d="M14.4003906,82.0058594 C14.4003906,85.4967622 13.8284562,88.0807208 12.6845703,89.7578125 C11.5406844,91.4349042 9.77930877,92.2734375 7.40039062,92.2734375 C5.09438951,92.2734375 3.35580013,91.4075607 2.18457031,89.6757812 C1.0133405,87.9440018 0.427734375,85.3873867 0.427734375,82.0058594 C0.427734375,78.478498 0.997390137,75.8785891 2.13671875,74.2060547 C3.27604736,72.5335203 5.03058711,71.6972656 7.40039062,71.6972656 C9.70639174,71.6972656 11.4495384,72.5722569 12.6298828,74.3222656 C13.8102273,76.0722744 14.4003906,78.6334467 14.4003906,82.0058594 L14.4003906,82.0058594 L14.4003906,82.0058594 Z M4.625,82.0058594 C4.625,84.4576946 4.83691194,86.2145129 5.26074219,87.2763672 C5.68457243,88.3382215 6.39778145,88.8691406 7.40039062,88.8691406 C8.38477055,88.8691406 9.09570094,88.3313856 9.53320312,87.2558594 C9.97070531,86.1803332 10.1894531,84.4303507 10.1894531,82.0058594 C10.1894531,79.5540242 9.96842669,77.7926486 9.52636719,76.7216797 C9.08430769,75.6507108 8.37565592,75.1152344 7.40039062,75.1152344 C6.40689607,75.1152344 5.69596568,75.6507108 5.26757812,76.7216797 C4.83919057,77.7926486 4.625,79.5540242 4.625,82.0058594 L4.625,82.0058594 L4.625,82.0058594 Z M30.3828125,82.0058594 C30.3828125,85.4967622 29.8108781,88.0807208 28.6669922,89.7578125 C27.5231063,91.4349042 25.7617306,92.2734375 23.3828125,92.2734375 C21.0768114,92.2734375 19.338222,91.4075607 18.1669922,89.6757812 C16.9957624,87.9440018 16.4101562,85.3873867 16.4101562,82.0058594 C16.4101562,78.478498 16.979812,75.8785891 18.1191406,74.2060547 C19.2584692,72.5335203 21.013009,71.6972656 23.3828125,71.6972656 C25.6888136,71.6972656 27.4319602,72.5722569 28.6123047,74.3222656 C29.7926491,76.0722744 30.3828125,78.6334467 30.3828125,82.0058594 L30.3828125,82.0058594 L30.3828125,82.0058594 Z M20.6074219,82.0058594 C20.6074219,84.4576946 20.8193338,86.2145129 21.2431641,87.2763672 C21.6669943,88.3382215 22.3802033,88.8691406 23.3828125,88.8691406 C24.3671924,88.8691406 25.0781228,88.3313856 25.515625,87.2558594 C25.9531272,86.1803332 26.171875,84.4303507 26.171875,82.0058594 C26.171875,79.5540242 25.9508486,77.7926486 25.5087891,76.7216797 C25.0667296,75.6507108 24.3580778,75.1152344 23.3828125,75.1152344 C22.3893179,75.1152344 21.6783876,75.6507108 21.25,76.7216797 C20.8216124,77.7926486 20.6074219,79.5540242 20.6074219,82.0058594 L20.6074219,82.0058594 L20.6074219,82.0058594 Z M46.3652344,82.0058594 C46.3652344,85.4967622 45.7933,88.0807208 44.6494141,89.7578125 C43.5055281,91.4349042 41.7441525,92.2734375 39.3652344,92.2734375 C37.0592333,92.2734375 35.3206439,91.4075607 34.1494141,89.6757812 C32.9781842,87.9440018 32.3925781,85.3873867 32.3925781,82.0058594 C32.3925781,78.478498 32.9622339,75.8785891 34.1015625,74.2060547 C35.2408911,72.5335203 36.9954309,71.6972656 39.3652344,71.6972656 C41.6712355,71.6972656 43.4143821,72.5722569 44.5947266,74.3222656 C45.775071,76.0722744 46.3652344,78.6334467 46.3652344,82.0058594 L46.3652344,82.0058594 L46.3652344,82.0058594 Z M36.5898438,82.0058594 C36.5898438,84.4576946 36.8017557,86.2145129 37.2255859,87.2763672 C37.6494162,88.3382215 38.3626252,88.8691406 39.3652344,88.8691406 C40.3496143,88.8691406 41.0605447,88.3313856 41.4980469,87.2558594 C41.9355491,86.1803332 42.1542969,84.4303507 42.1542969,82.0058594 C42.1542969,79.5540242 41.9332704,77.7926486 41.4912109,76.7216797 C41.0491514,75.6507108 40.3404997,75.1152344 39.3652344,75.1152344 C38.3717398,75.1152344 37.6608094,75.6507108 37.2324219,76.7216797 C36.8040343,77.7926486 36.5898438,79.5540242 36.5898438,82.0058594 L36.5898438,82.0058594 L36.5898438,82.0058594 Z M69.6210938,82.0058594 C69.6210938,85.4967622 69.0491594,88.0807208 67.9052734,89.7578125 C66.7613875,91.4349042 65.0000119,92.2734375 62.6210938,92.2734375 C60.3150926,92.2734375 58.5765033,91.4075607 57.4052734,89.6757812 C56.2340436,87.9440018 55.6484375,85.3873867 55.6484375,82.0058594 C55.6484375,78.478498 56.2180933,75.8785891 57.3574219,74.2060547 C58.4967505,72.5335203 60.2512902,71.6972656 62.6210938,71.6972656 C64.9270949,71.6972656 66.6702415,72.5722569 67.8505859,74.3222656 C69.0309304,76.0722744 69.6210938,78.6334467 69.6210938,82.0058594 L69.6210938,82.0058594 L69.6210938,82.0058594 Z M59.8457031,82.0058594 C59.8457031,84.4576946 60.0576151,86.2145129 60.4814453,87.2763672 C60.9052756,88.3382215 61.6184846,88.8691406 62.6210938,88.8691406 C63.6054737,88.8691406 64.3164041,88.3313856 64.7539062,87.2558594 C65.1914084,86.1803332 65.4101562,84.4303507 65.4101562,82.0058594 C65.4101562,79.5540242 65.1891298,77.7926486 64.7470703,76.7216797 C64.3050108,75.6507108 63.596359,75.1152344 62.6210938,75.1152344 C61.6275992,75.1152344 60.9166688,75.6507108 60.4882812,76.7216797 C60.0598937,77.7926486 59.8457031,79.5540242 59.8457031,82.0058594 L59.8457031,82.0058594 L59.8457031,82.0058594 Z M85.6035156,82.0058594 C85.6035156,85.4967622 85.0315812,88.0807208 83.8876953,89.7578125 C82.7438094,91.4349042 80.9824338,92.2734375 78.6035156,92.2734375 C76.2975145,92.2734375 74.5589251,91.4075607 73.3876953,89.6757812 C72.2164655,87.9440018 71.6308594,85.3873867 71.6308594,82.0058594 C71.6308594,78.478498 72.2005151,75.8785891 73.3398438,74.2060547 C74.4791724,72.5335203 76.2337121,71.6972656 78.6035156,71.6972656 C80.9095167,71.6972656 82.6526634,72.5722569 83.8330078,74.3222656 C85.0133523,76.0722744 85.6035156,78.6334467 85.6035156,82.0058594 L85.6035156,82.0058594 L85.6035156,82.0058594 Z M75.828125,82.0058594 C75.828125,84.4576946 76.0400369,86.2145129 76.4638672,87.2763672 C76.8876974,88.3382215 77.6009064,88.8691406 78.6035156,88.8691406 C79.5878955,88.8691406 80.2988259,88.3313856 80.7363281,87.2558594 C81.1738303,86.1803332 81.3925781,84.4303507 81.3925781,82.0058594 C81.3925781,79.5540242 81.1715517,77.7926486 80.7294922,76.7216797 C80.2874327,75.6507108 79.5787809,75.1152344 78.6035156,75.1152344 C77.6100211,75.1152344 76.8990907,75.6507108 76.4707031,76.7216797 C76.0423156,77.7926486 75.828125,79.5540242 75.828125,82.0058594 L75.828125,82.0058594 L75.828125,82.0058594 Z M101.585938,82.0058594 C101.585938,85.4967622 101.014003,88.0807208 99.8701172,89.7578125 C98.7262313,91.4349042 96.9648556,92.2734375 94.5859375,92.2734375 C92.2799364,92.2734375 90.541347,91.4075607 89.3701172,89.6757812 C88.1988874,87.9440018 87.6132812,85.3873867 87.6132812,82.0058594 C87.6132812,78.478498 88.182937,75.8785891 89.3222656,74.2060547 C90.4615942,72.5335203 92.216134,71.6972656 94.5859375,71.6972656 C96.8919386,71.6972656 98.6350852,72.5722569 99.8154297,74.3222656 C100.995774,76.0722744 101.585938,78.6334467 101.585938,82.0058594 L101.585938,82.0058594 L101.585938,82.0058594 Z M91.8105469,82.0058594 C91.8105469,84.4576946 92.0224588,86.2145129 92.4462891,87.2763672 C92.8701193,88.3382215 93.5833283,88.8691406 94.5859375,88.8691406 C95.5703174,88.8691406 96.2812478,88.3313856 96.71875,87.2558594 C97.1562522,86.1803332 97.375,84.4303507 97.375,82.0058594 C97.375,79.5540242 97.1539736,77.7926486 96.7119141,76.7216797 C96.2698546,75.6507108 95.5612028,75.1152344 94.5859375,75.1152344 C93.5924429,75.1152344 92.8815126,75.6507108 92.453125,76.7216797 C92.0247374,77.7926486 91.8105469,79.5540242 91.8105469,82.0058594 L91.8105469,82.0058594 L91.8105469,82.0058594 Z" id="path-1"></path>
        <mask id="mask-2" maskContentUnits="userSpaceOnUse" maskUnits="objectBoundingBox" x="-3" y="-3" width="107.158203" height="26.5761719">
            <rect x="-2.57226562" y="68.6972656" width="107.158203" height="26.5761719" fill="white"></rect>
            <use xlink:href="#path-1" fill="black"></use>
        </mask>
        <path d="M36.6982422,56 L24.9296875,56 L24.9296875,23.7792969 L25.0439453,18.4853516 L25.234375,12.6962891 C23.2792871,14.651377 21.9209022,15.9335907 21.1591797,16.5429688 L14.7607422,21.6845703 L9.0859375,14.6005859 L27.0244141,0.318359375 L36.6982422,0.318359375 L36.6982422,56 L36.6982422,56 Z M57.6455078,56 L78.5546875,10.296875 L51.0947266,10.296875 L51.0947266,0.39453125 L91.046875,0.39453125 L91.046875,7.78320313 L69.9853516,56 L57.6455078,56 L57.6455078,56 Z" id="path-3"></path>
        <mask id="mask-4" maskContentUnits="userSpaceOnUse" maskUnits="objectBoundingBox" x="-3" y="-3" width="87.9609375" height="61.6816406">
            <rect x="6.0859375" y="-2.68164062" width="87.9609375" height="61.6816406" fill="white"></rect>
            <use xlink:href="#path-3" fill="black"></use>
        </mask>
    </defs>
    <g id="Main-page" stroke="none" stroke-width="1" fill="none" fill-rule="evenodd">
        <g id="Main-page-3" transform="translate(-306.000000, -2364.000000)" stroke-width="6">
            <g id="Group-3" transform="translate(0.000000, 2012.000000)">
                <g id="Group-5" transform="translate(250.000000, 320.000000)">
                    <g id="Images/17000000" transform="translate(59.000000, 35.000000)">
                        <use id="000-000" stroke="#F62B2B" mask="url(#mask-2)" xlink:href="#path-1"></use>
                        <use id="17" stroke="#F72B2B" mask="url(#mask-4)" xlink:href="#path-3"></use>
                    </g>
                </g>
            </g>
        </g>
    </g>
</svg>