<?xml version="1.0" encoding="UTF-8" standalone="no"?>
<svg width="220px" height="37px" viewBox="0 0 220 37" version="1.1" xmlns="http://www.w3.org/2000/svg" xmlns:xlink="http://www.w3.org/1999/xlink">
    <!-- Generator: Sketch 39.1 (31720) - http://www.bohemiancoding.com/sketch -->
    <title>Images/Antistroks_logo</title>
    <desc>Created with Sketch.</desc>
    <defs></defs>
    <g id="Symbols" stroke="none" stroke-width="1" fill="none" fill-rule="evenodd">
        <g id="Blocks/Header" transform="translate(-250.000000, -31.000000)">
            <g id="Antistroks-logo" transform="translate(250.000000, 31.000000)">
                <path d="M57.7744409,21.648807 L61.7371989,21.648807 L59.9395819,10.4615854 L57.7744409,21.648807 L57.7744409,21.648807 Z M51,31.4634975 L56.99139,7.43937267 L63.0152821,7.43937267 L68.2476226,31.4634975 L63.4063075,31.4634975 L62.2962353,25.2075222 L57.2234051,25.2075222 L55.8173136,31.4634975 L51,31.4634975 Z M69.4627017,31.4634975 L69.4627017,7.43937267 L73.9444934,7.43937267 L73.9444934,16.7582433 L79.8638787,16.7582433 L79.8638787,7.43937267 L84.3456704,7.43937267 L84.3456704,31.4634975 L79.8638787,31.4634975 L79.8638787,20.3815423 L73.9444934,20.3815423 L73.9444934,31.4634975 L69.4627017,31.4634975 Z M100.93925,7.43937267 L100.93925,11.2981225 L95.8024161,11.2981225 L95.8024161,31.4634975 L91.3206244,31.4634975 L91.3206244,11.2981225 L86.0557817,11.2981225 L86.0557817,7.43937267 L100.93925,7.43937267 Z M113.814589,31.4634975 L113.814589,22.3805862 C113.814589,18.7079596 114.009101,15.9237404 114.397626,14.0284372 L107.823199,31.4634975 L102.981883,31.4634975 L102.981883,7.43937267 L107.200158,7.43937267 L107.200158,16.4571917 C107.200158,17.519009 107.178657,18.5940481 107.136154,19.6828177 C107.093651,20.7715872 107.025147,21.7749232 106.932141,22.6928256 C106.839134,23.610728 106.731127,24.3491182 106.608619,24.9069791 L113.191548,7.43937267 L118.032863,7.43937267 L118.032863,31.4634975 L113.814589,31.4634975 Z M130.707688,15.2550192 L130.707688,14.7271618 C130.707688,13.2269889 130.505675,12.1743252 130.100649,11.5706963 C129.696122,10.9665589 129.014578,10.6644901 128.056015,10.6644901 C127.091953,10.6644901 126.397908,10.9691015 125.97438,11.5783243 C125.551352,12.1880556 125.339339,13.2371595 125.339339,14.7271618 L125.339339,24.1757084 C125.339339,25.7084274 125.545852,26.7855007 125.958379,27.4048941 C126.370906,28.0253046 127.059451,28.3350013 128.023513,28.3350013 C128.950574,28.3350013 129.629618,28.0181851 130.060646,27.3845528 C130.492674,26.7509204 130.707688,25.6814752 130.707688,24.1757084 L130.707688,22.8758976 L135.221982,22.8758976 L135.221982,23.9722951 C135.221982,25.5324749 135.003468,26.9085657 134.566939,28.100059 C134.130411,29.2915522 133.378362,30.2394581 132.311292,30.943268 C131.244223,31.6475865 129.827131,32 128.059516,32 C125.345339,32 123.450216,31.2727975 122.374646,29.8183926 C121.299576,28.3639877 120.762041,26.4152885 120.762041,23.9722951 L120.762041,15.2550192 C120.762041,12.4652062 121.376581,10.3924249 122.606161,9.03514981 C123.835741,7.67838327 125.67486,7 128.12352,7 C129.614117,7 130.8952,7.28477858 131.96827,7.85331869 C133.04034,8.42185879 133.850893,9.24415695 134.398928,10.3191961 C134.947464,11.3942353 135.221982,12.6630256 135.221982,14.125567 L135.221982,15.2550192 L130.707688,15.2550192 Z M151.288028,7.43937267 L151.288028,11.2981225 L146.150693,11.2981225 L146.150693,31.4634975 L141.668902,31.4634975 L141.668902,11.2981225 L136.404559,11.2981225 L136.404559,7.43937267 L151.288028,7.43937267 Z M153.484671,31.4634975 L153.484671,7.43937267 L161.960722,7.43937267 C163.201803,7.43937267 164.295874,7.75059498 165.244436,8.37354814 C166.191998,8.99599276 166.923045,9.84270051 167.436579,10.9126543 C167.951112,11.9820996 168.207629,13.1644393 168.207629,14.4586563 C168.207629,15.780334 167.945612,16.9921686 167.421078,18.0946685 C166.896044,19.19666 166.153495,20.07032 165.191933,20.7146315 C164.23037,21.3594516 163.129798,21.6818616 161.888718,21.6818616 L157.966462,21.6818616 L157.966462,31.4634975 L153.484671,31.4634975 Z M160.227109,10.9975794 L157.966462,10.9975794 L157.966462,18.1226379 L160.227109,18.1226379 C162.469255,18.1226379 163.590328,16.9230081 163.590328,14.5237485 C163.590328,12.1727996 162.469255,10.9975794 160.227109,10.9975794 Z M171.682855,10.4656537 C172.321897,9.24415695 173.213955,8.36134334 174.359029,7.8167043 C175.503604,7.27206525 176.856692,7 178.416793,7 C179.998896,7 181.350484,7.26748846 182.471557,7.80093977 C183.59263,8.33388255 184.461687,9.21161083 185.080227,10.432599 C185.697767,11.6546043 186.006287,13.2508899 186.006287,15.2224731 L186.006287,23.810073 C186.006287,25.7816562 185.699267,27.3657371 185.083727,28.5633327 C184.468687,29.7599113 183.599131,30.6142471 182.475558,31.12634 C181.351984,31.6384329 179.998896,31.8942251 178.416793,31.8942251 C173.28846,31.8942251 170.724293,29.1995077 170.724293,23.810073 L170.724293,15.2224731 C170.724293,13.2722483 171.043313,11.6866419 171.682855,10.4656537 Z M178.416793,28.2378715 C179.391857,28.2378715 180.135905,27.9078334 180.649939,27.2467403 C181.163972,26.5861557 181.420989,25.6301133 181.420989,24.3786131 L181.420989,14.7591994 C181.420989,13.4700677 181.161472,12.4652062 180.642438,11.7446146 C180.122904,11.0245316 179.380856,10.6644901 178.416793,10.6644901 C176.340158,10.6644901 175.301591,12.0080348 175.301591,14.6941071 L175.301591,24.3786131 C175.301591,26.9517911 176.340158,28.2378715 178.416793,28.2378715 Z M189.11449,31.4634975 L189.11449,7.43937267 L193.596281,7.43937267 L193.596281,17.8546409 L199.028135,7.43937267 L204.101465,7.43937267 L198.109575,17.8546409 L204.292978,31.4634975 L199.291652,31.4634975 L195.361396,21.8761213 L193.596281,24.2408006 L193.596281,31.4634975 L189.11449,31.4634975 Z M215.485706,15.2550192 L215.485706,14.7271618 C215.485706,13.2269889 215.283693,12.1743252 214.878667,11.5706963 C214.47414,10.9665589 213.792096,10.6644901 212.833534,10.6644901 C211.869971,10.6644901 211.175926,10.9691015 210.752398,11.5783243 C210.329371,12.1880556 210.117357,13.2371595 210.117357,14.7271618 L210.117357,24.1757084 C210.117357,25.7084274 210.32387,26.7855007 210.736397,27.4048941 C211.148924,28.0253046 211.837469,28.3350013 212.801531,28.3350013 C213.728592,28.3350013 214.407636,28.0181851 214.838664,27.3845528 C215.270692,26.7509204 215.485706,25.6814752 215.485706,24.1757084 L215.485706,22.8758976 L220,22.8758976 L220,23.9722951 C220,25.5324749 219.781486,26.9085657 219.344957,28.100059 C218.908429,29.2915522 218.15638,30.2394581 217.089311,30.943268 C216.021741,31.6475865 214.604649,32 212.837534,32 C210.123357,32 208.228234,31.2727975 207.152664,29.8183926 C206.077594,28.3639877 205.540059,26.4152885 205.540059,23.9722951 L205.540059,15.2550192 C205.540059,12.4652062 206.154599,10.3924249 207.384179,9.03514981 C208.613759,7.67838327 210.452879,7 212.901538,7 C214.392135,7 215.673218,7.28477858 216.746288,7.85331869 C217.818358,8.42185879 218.628911,9.24415695 219.176946,10.3191961 C219.725482,11.3942353 220,12.6630256 220,14.125567 L220,15.2550192 L215.485706,15.2550192 Z" id="Combined-Shape" fill="#F72B2B"></path>
                <path d="M0.947608,22.624815 C0.325128,22.624815 0,22.3712383 0,21.6936359 L0,13.5071534 C0,12.8288111 0.394568,11.8813518 0.87668,11.4018254 L11.463304,0.871978293 C11.945416,0.392451899 12.897984,0 13.579984,0 L17.36,0 L19.84,0 L29.76,0 C30.442,0 31,0.5550074 31,1.23334978 L31,5.21238283 C31,5.94055254 30.752,6.26319684 30.059832,6.26319684 C17.484,6.2627035 13.02,22.624815 0.947608,22.624815 L0.947608,22.624815 Z M1.257112,26.4684262 C0.308016,26.4684262 0,27.0241737 0,27.6780957 L0,35.7666502 C0,36.4449926 0.558,37 1.24,37 L8.68,37 C9.362,37 10.374088,36.6773557 10.928864,36.2831771 L18.6,30.7715836 L18.6,35.7666502 C18.6,36.4449926 19.158,37 19.84,37 L29.76,37 C30.442,37 31,36.4449926 31,35.7666502 L31,16.4612728 C31,15.801184 30.751256,15.4612728 29.99808,15.4612728 C14.730704,15.4615195 13.206,26.4684262 1.257112,26.4684262 L1.257112,26.4684262 Z" id="Anti_stroks_logo" fill="#F62B2B"></path>
            </g>
        </g>
    </g>
</svg>