<?xml version="1.0" encoding="UTF-8" standalone="no"?>
<svg width="220px" height="38px" viewBox="0 0 220 38" version="1.1" xmlns="http://www.w3.org/2000/svg" xmlns:xlink="http://www.w3.org/1999/xlink">
    <!-- Generator: Sketch 39.1 (31720) - http://www.bohemiancoding.com/sketch -->
    <title>Images/AntiStroks_logo_white</title>
    <desc>Created with Sketch.</desc>
    <defs></defs>
    <g id="Main-page" stroke="none" stroke-width="1" fill="none" fill-rule="evenodd">
        <g id="Main-page-3" transform="translate(-610.000000, -397.000000)" fill="#FFFFFF">
            <path d="M667.774441,417.648311 L671.737199,417.648311 L669.939582,406.461089 L667.774441,417.648311 L667.774441,417.648311 Z M661,427.463001 L666.99139,403.438877 L673.015282,403.438877 L678.247623,427.463001 L673.406308,427.463001 L672.296235,421.207026 L667.223405,421.207026 L665.817314,427.463001 L661,427.463001 Z M679.462702,427.463001 L679.462702,403.438877 L683.944493,403.438877 L683.944493,412.757747 L689.863879,412.757747 L689.863879,403.438877 L694.34567,403.438877 L694.34567,427.463001 L689.863879,427.463001 L689.863879,416.381046 L683.944493,416.381046 L683.944493,427.463001 L679.462702,427.463001 Z M710.93925,403.438877 L710.93925,407.297626 L705.802416,407.297626 L705.802416,427.463001 L701.320624,427.463001 L701.320624,407.297626 L696.055782,407.297626 L696.055782,403.438877 L710.93925,403.438877 Z M723.814589,427.463001 L723.814589,418.38009 C723.814589,414.707464 724.009101,411.923244 724.397626,410.027941 L717.823199,427.463001 L712.981883,427.463001 L712.981883,403.438877 L717.200158,403.438877 L717.200158,412.456696 C717.200158,413.518513 717.178657,414.593552 717.136154,415.682322 C717.093651,416.771091 717.025147,417.774427 716.932141,418.69233 C716.839134,419.610232 716.731127,420.348622 716.608619,420.906483 L723.191548,403.438877 L728.032863,403.438877 L728.032863,427.463001 L723.814589,427.463001 Z M740.707688,411.254523 L740.707688,410.726666 C740.707688,409.226493 740.505675,408.173829 740.100649,407.5702 C739.696122,406.966063 739.014578,406.663994 738.056015,406.663994 C737.091953,406.663994 736.397908,406.968606 735.97438,407.577828 C735.551352,408.18756 735.339339,409.236664 735.339339,410.726666 L735.339339,420.175212 C735.339339,421.707931 735.545852,422.785005 735.958379,423.404398 C736.370906,424.024809 737.059451,424.334505 738.023513,424.334505 C738.950574,424.334505 739.629618,424.017689 740.060646,423.384057 C740.492674,422.750424 740.707688,421.680979 740.707688,420.175212 L740.707688,418.875402 L745.221982,418.875402 L745.221982,419.971799 C745.221982,421.531979 745.003468,422.90807 744.566939,424.099563 C744.130411,425.291056 743.378362,426.238962 742.311292,426.942772 C741.244223,427.647091 739.827131,427.999504 738.059516,427.999504 C735.345339,427.999504 733.450216,427.272302 732.374646,425.817897 C731.299576,424.363492 730.762041,422.414793 730.762041,419.971799 L730.762041,411.254523 C730.762041,408.46471 731.376581,406.391929 732.606161,405.034654 C733.835741,403.677887 735.67486,402.999504 738.12352,402.999504 C739.614117,402.999504 740.8952,403.284283 741.96827,403.852823 C743.04034,404.421363 743.850893,405.243661 744.398928,406.3187 C744.947464,407.393739 745.221982,408.66253 745.221982,410.125071 L745.221982,411.254523 L740.707688,411.254523 Z M761.288028,403.438877 L761.288028,407.297626 L756.150693,407.297626 L756.150693,427.463001 L751.668902,427.463001 L751.668902,407.297626 L746.404559,407.297626 L746.404559,403.438877 L761.288028,403.438877 Z M763.484671,427.463001 L763.484671,403.438877 L771.960722,403.438877 C773.201803,403.438877 774.295874,403.750099 775.244436,404.373052 C776.191998,404.995497 776.923045,405.842205 777.436579,406.912158 C777.951112,407.981604 778.207629,409.163943 778.207629,410.45816 C778.207629,411.779838 777.945612,412.991673 777.421078,414.094173 C776.896044,415.196164 776.153495,416.069824 775.191933,416.714136 C774.23037,417.358956 773.129798,417.681366 771.888718,417.681366 L767.966462,417.681366 L767.966462,427.463001 L763.484671,427.463001 Z M770.227109,406.997083 L767.966462,406.997083 L767.966462,414.122142 L770.227109,414.122142 C772.469255,414.122142 773.590328,412.922512 773.590328,410.523252 C773.590328,408.172304 772.469255,406.997083 770.227109,406.997083 Z M781.682855,406.465158 C782.321897,405.243661 783.213955,404.360847 784.359029,403.816208 C785.503604,403.271569 786.856692,402.999504 788.416793,402.999504 C789.998896,402.999504 791.350484,403.266992 792.471557,403.800444 C793.59263,404.333387 794.461687,405.211115 795.080227,406.432103 C795.697767,407.654108 796.006287,409.250394 796.006287,411.221977 L796.006287,419.809577 C796.006287,421.78116 795.699267,423.365241 795.083727,424.562837 C794.468687,425.759415 793.599131,426.613751 792.475558,427.125844 C791.351984,427.637937 789.998896,427.893729 788.416793,427.893729 C783.28846,427.893729 780.724293,425.199012 780.724293,419.809577 L780.724293,411.221977 C780.724293,409.271752 781.043313,407.686146 781.682855,406.465158 Z M788.416793,424.237375 C789.391857,424.237375 790.135905,423.907337 790.649939,423.246244 C791.163972,422.58566 791.420989,421.629617 791.420989,420.378117 L791.420989,410.758703 C791.420989,409.469572 791.161472,408.46471 790.642438,407.744119 C790.122904,407.024036 789.380856,406.663994 788.416793,406.663994 C786.340158,406.663994 785.301591,408.007539 785.301591,410.693611 L785.301591,420.378117 C785.301591,422.951295 786.340158,424.237375 788.416793,424.237375 Z M799.11449,427.463001 L799.11449,403.438877 L803.596281,403.438877 L803.596281,413.854145 L809.028135,403.438877 L814.101465,403.438877 L808.109575,413.854145 L814.292978,427.463001 L809.291652,427.463001 L805.361396,417.875625 L803.596281,420.240305 L803.596281,427.463001 L799.11449,427.463001 Z M825.485706,411.254523 L825.485706,410.726666 C825.485706,409.226493 825.283693,408.173829 824.878667,407.5702 C824.47414,406.966063 823.792096,406.663994 822.833534,406.663994 C821.869971,406.663994 821.175926,406.968606 820.752398,407.577828 C820.329371,408.18756 820.117357,409.236664 820.117357,410.726666 L820.117357,420.175212 C820.117357,421.707931 820.32387,422.785005 820.736397,423.404398 C821.148924,424.024809 821.837469,424.334505 822.801531,424.334505 C823.728592,424.334505 824.407636,424.017689 824.838664,423.384057 C825.270692,422.750424 825.485706,421.680979 825.485706,420.175212 L825.485706,418.875402 L830,418.875402 L830,419.971799 C830,421.531979 829.781486,422.90807 829.344957,424.099563 C828.908429,425.291056 828.15638,426.238962 827.089311,426.942772 C826.021741,427.647091 824.604649,427.999504 822.837534,427.999504 C820.123357,427.999504 818.228234,427.272302 817.152664,425.817897 C816.077594,424.363492 815.540059,422.414793 815.540059,419.971799 L815.540059,411.254523 C815.540059,408.46471 816.154599,406.391929 817.384179,405.034654 C818.613759,403.677887 820.452879,402.999504 822.901538,402.999504 C824.392135,402.999504 825.673218,403.284283 826.746288,403.852823 C827.818358,404.421363 828.628911,405.243661 829.176946,406.3187 C829.725482,407.393739 830,408.66253 830,410.125071 L830,411.254523 L825.485706,411.254523 Z M610.947608,419.746808 C610.325128,419.746808 610,419.491864 610,418.810608 L610,410.579984 C610,409.897984 610.394568,408.945416 610.87668,408.463304 L621.463304,397.87668 C621.945416,397.394568 622.897984,397 623.579984,397 L627.36,397 L629.84,397 L639.76,397 C640.442,397 641,397.558 641,398.24 L641,402.240488 C641,402.972584 640.752,403.296968 640.059832,403.296968 C627.484,403.296472 623.02,419.746808 610.947608,419.746808 Z M611.257112,423.611144 C610.308016,423.611144 610,424.169888 610,424.827336 L610,432.959504 C610,433.641504 610.558,434.199504 611.24,434.199504 L618.68,434.199504 C619.362,434.199504 620.374088,433.87512 620.928864,433.478816 L628.6,427.937504 L628.6,432.959504 C628.6,433.641504 629.158,434.199504 629.84,434.199504 L639.76,434.199504 C640.442,434.199504 641,433.641504 641,432.959504 L641,413.550032 C641,412.886384 640.751256,412.54464 639.99808,412.54464 C624.730704,412.544888 623.206,423.611144 611.257112,423.611144 Z" id="Images/AntiStroks_logo_white"></path>
        </g>
    </g>
</svg>