<?xml version="1.0" encoding="UTF-8" standalone="no"?>
<svg width="57px" height="71px" viewBox="0 0 57 71" version="1.1" xmlns="http://www.w3.org/2000/svg" xmlns:xlink="http://www.w3.org/1999/xlink">
    <!-- Generator: Sketch 39.1 (31720) - http://www.bohemiancoding.com/sketch -->
    <title>Images/Disabled_man</title>
    <desc>Created with Sketch.</desc>
    <defs>
        <path d="M596.249251,101.53518 C593.258487,104.526226 589.282338,106.17313 585.052386,106.17313 C576.322922,106.17313 569.220666,99.0708741 569.220666,90.3405664 C569.220666,86.1103332 570.867289,82.13334 573.85749,79.1428571 C574.681646,78.3187017 574.681365,76.9824387 573.857209,76.1582833 C573.033054,75.3338464 571.696791,75.3341278 570.872635,76.1585646 C567.085572,79.9461906 565,84.9825711 565,90.340285 C565,101.397587 573.995366,110.393515 585.052386,110.393515 C590.409537,110.393515 595.445918,108.30738 599.233825,104.51891 C600.05798,103.694755 600.057699,102.358492 599.233544,101.534618 C598.409388,100.711306 597.073125,100.711025 596.249251,101.53518 Z M613.889948,92.9073605 L607.886754,92.9073605 L604.170035,82.5951471 C603.868398,81.7580482 603.07435,81.2003575 602.184633,81.2003575 L586.536654,81.2003575 L586.536654,71.7246801 L601.069252,71.7246801 C602.234719,71.7246801 603.179585,70.780095 603.179585,69.614347 C603.179585,68.4485989 602.234719,67.5040138 601.069252,67.5040138 L586.536654,67.5040138 L586.536654,60.9915256 C586.536654,59.8257775 585.591787,58.8811924 584.42632,58.8811924 C583.260854,58.8811924 582.315987,59.8257775 582.315987,60.9915256 L582.315987,83.3104093 C582.315987,84.4761574 583.260854,85.4207425 584.42632,85.4207425 L600.701773,85.4207425 L604.418491,95.732956 C604.720128,96.5700548 605.514176,97.1277455 606.403893,97.1277455 L613.889667,97.1277455 C615.055133,97.1277455 616,96.1831604 616,95.0174123 C616,93.8516643 615.055696,92.9073605 613.889948,92.9073605 Z M584.50595,56.2528427 C587.337455,56.2528427 589.632934,53.9584885 589.632934,51.1250145 C589.632653,48.2963239 587.337455,46 584.50595,46 C581.674446,46 579.379529,48.2963239 579.379529,51.1252959 C579.379529,53.9584885 581.674446,56.2528427 584.50595,56.2528427 Z" id="path-1"></path>
        <mask id="mask-2" maskContentUnits="userSpaceOnUse" maskUnits="objectBoundingBox" x="-3" y="-3" width="57" height="70.3935151">
            <rect x="562" y="43" width="57" height="70.3935151" fill="white"></rect>
            <use xlink:href="#path-1" fill="black"></use>
        </mask>
    </defs>
    <g id="Main-page" stroke="none" stroke-width="1" fill="none" fill-rule="evenodd">
        <g id="Main" transform="translate(-812.000000, -1663.000000)" stroke="#F72B2B" stroke-width="6">
            <g id="Group-10" transform="translate(250.000000, 1517.000000)">
                <g id="Group-5" transform="translate(0.000000, 103.000000)">
                    <use id="Images/Disabled_man" mask="url(#mask-2)" xlink:href="#path-1"></use>
                </g>
            </g>
        </g>
    </g>
</svg>