<?xml version="1.0" encoding="UTF-8" standalone="no"?>
<svg width="74px" height="59px" viewBox="0 0 74 59" version="1.1" xmlns="http://www.w3.org/2000/svg" xmlns:xlink="http://www.w3.org/1999/xlink">
    <!-- Generator: Sketch 39.1 (31720) - http://www.bohemiancoding.com/sketch -->
    <title>Images/Heartbeat_monitor</title>
    <desc>Created with Sketch.</desc>
    <defs></defs>
    <g id="Main-page" stroke="none" stroke-width="1" fill="none" fill-rule="evenodd">
        <g id="Main" transform="translate(-1043.000000, -1671.000000)" fill="#F72B2B">
            <g id="Group-10" transform="translate(250.000000, 1517.000000)">
                <g id="Group-5" transform="translate(0.000000, 103.000000)">
                    <path d="M861.768448,51.4673913 L798.231552,51.4673913 C795.472622,51.4673913 793.228022,53.7081618 793.228022,56.462386 L793.228022,102.130909 C793.228022,104.475385 794.854725,106.446584 797.040236,106.981762 L797.040236,108.473759 C797.040236,109.130561 797.573628,109.663043 798.231552,109.663043 C798.889477,109.663043 799.422869,109.130561 799.422869,108.473759 L799.422869,107.125903 L860.577131,107.125903 L860.577131,108.473759 C860.577131,109.130561 861.110523,109.663043 861.768448,109.663043 C862.426372,109.663043 862.959764,109.130561 862.959764,108.473759 L862.959764,106.981762 C865.145275,106.446743 866.771978,104.475385 866.771978,102.130909 L866.771978,56.462386 C866.771978,53.7081618 864.527378,51.4673913 861.768448,51.4673913 L861.768448,51.4673913 Z M864.389344,102.130909 C864.389344,103.57359 863.213594,104.747334 861.768448,104.747334 L798.231552,104.747334 C796.786406,104.747334 795.610656,103.57359 795.610656,102.130909 L795.610656,56.462386 C795.610656,55.0197047 796.786406,53.8459602 798.231552,53.8459602 L861.768448,53.8459602 C863.213594,53.8459602 864.389344,55.0197047 864.389344,56.462386 L864.389344,102.130909 Z M860.49771,56.5416716 L799.50229,56.5416716 C798.844366,56.5416716 798.310974,57.0741539 798.310974,57.730956 L798.310974,95.7880583 C798.310974,96.4448604 798.844366,96.9773427 799.50229,96.9773427 L860.49771,96.9773427 C861.155634,96.9773427 861.689026,96.4448604 861.689026,95.7880583 L861.689026,57.730956 C861.689026,57.0741539 861.155634,56.5416716 860.49771,56.5416716 Z M859.306393,94.5987738 L800.693607,94.5987738 L800.693607,58.9202405 L859.306393,58.9202405 L859.306393,94.5987738 Z M859.226972,99.6730541 L857.956234,99.6730541 C857.298309,99.6730541 856.764917,100.205536 856.764917,100.862339 C856.764917,101.519141 857.298309,102.051623 857.956234,102.051623 L859.226972,102.051623 C859.884896,102.051623 860.418289,101.519141 860.418289,100.862339 C860.418289,100.205536 859.884896,99.6730541 859.226972,99.6730541 Z M852.873282,99.6730541 L851.602544,99.6730541 C850.94462,99.6730541 850.411228,100.205536 850.411228,100.862339 C850.411228,101.519141 850.94462,102.051623 851.602544,102.051623 L852.873282,102.051623 C853.531207,102.051623 854.064599,101.519141 854.064599,100.862339 C854.064599,100.205536 853.531207,99.6730541 852.873282,99.6730541 Z M846.519593,99.6730541 L842.707379,99.6730541 C842.049454,99.6730541 841.516062,100.205536 841.516062,100.862339 C841.516062,101.519141 842.049454,102.051623 842.707379,102.051623 L846.519593,102.051623 C847.177517,102.051623 847.71091,101.519141 847.71091,100.862339 C847.71091,100.205536 847.177517,99.6730541 846.519593,99.6730541 Z M809.003819,77.9487916 C809.550395,77.9487916 810.026922,77.5774177 810.159555,77.0479483 L811.51019,71.654464 L815.468539,88.4490633 C815.595295,88.9866198 816.075634,89.3659223 816.628087,89.3659223 C817.191183,89.3624337 817.670569,88.9761541 817.79113,88.4346333 L820.125317,77.9487916 L855.414758,77.9487916 C856.072683,77.9487916 856.606075,77.4163093 856.606075,76.7595072 C856.606075,76.102705 856.072683,75.5702227 855.414758,75.5702227 L819.169722,75.5702227 C818.611391,75.5702227 818.127876,75.9572952 818.006838,76.5015117 L816.595048,82.8434107 L812.705002,66.3386797 C812.57904,65.8044531 812.103307,65.4256264 811.553554,65.4218207 C810.998877,65.4218207 810.522192,65.7928774 810.389558,66.322664 L808.073639,75.5702227 L804.585242,75.5702227 C803.927317,75.5702227 803.393925,76.102705 803.393925,76.7595072 C803.393925,77.4163093 803.927317,77.9487916 804.585242,77.9487916 L809.003819,77.9487916 Z" id="Images/Heartbeat_monitor"></path>
                </g>
            </g>
        </g>
    </g>
</svg>