<?xml version="1.0" encoding="UTF-8" standalone="no"?>
<svg width="369px" height="38px" viewBox="0 0 369 38" version="1.1" xmlns="http://www.w3.org/2000/svg" xmlns:xlink="http://www.w3.org/1999/xlink">
    <!-- Generator: Sketch 39.1 (31720) - http://www.bohemiancoding.com/sketch -->
    <title>Images/HOMEXPHARM_logo</title>
    <desc>Created with Sketch.</desc>
    <defs></defs>
    <g id="Symbols" stroke="none" stroke-width="1" fill="none" fill-rule="evenodd">
        <g id="Images/HOMEXPHARM_logo">
            <g id="Homexpharm-logo">
                <path d="M8.389,37.039 L0,37.039 L0,1.445 L8.389,1.445 L8.389,14.818 L21.303,14.818 L21.303,1.445 L29.692,1.445 L29.692,37.039 L21.303,37.039 L21.303,21.732 L8.389,21.732 L8.389,37.039 Z M33.967,19.215 C33.967,10.94 37.927,0.43 51.941,0.43 C64.175,0.43 69.914,8.453 69.914,19.215 C69.914,29.979 64.175,38 51.941,38 C37.927,38 33.967,27.492 33.967,19.215 Z M60.875,19.215 C60.875,16.018 60.519,7.336 51.941,7.336 C47.32,7.336 43.057,9.824 43.057,19.215 C43.057,28.506 47.32,31.096 51.941,31.096 C60.469,31.096 60.875,22.211 60.875,19.215 Z M82.724,11.615 L82.571,11.615 L82.571,37.037 L74.181,37.037 L74.181,1.447 L85.978,1.447 L94.47,25.902 L102.96,1.447 L114.757,1.447 L114.757,37.037 L106.367,37.037 L106.367,11.615 L106.214,11.615 L97.317,37.037 L91.623,37.037 L82.724,11.615 Z M146.473,15.582 L146.473,22.141 L129.082,22.141 L129.082,30.123 L149.32,30.123 L149.32,37.037 L120.693,37.037 L120.693,1.447 L148.812,1.447 L148.812,8.361 L129.082,8.361 L129.082,15.582 L146.473,15.582 Z M208.527,1.447 C215.747,1.447 221.952,4.141 221.952,12.936 C221.952,24.072 212.646,24.785 208.323,24.785 L200.34,24.785 L200.34,37.039 L191.952,37.039 L191.952,1.447 L208.527,1.447 Z M200.34,17.871 L206.9,17.871 C210.868,17.871 212.9,16.445 212.9,12.988 C212.9,8.158 208.781,8.361 206.9,8.361 L200.34,8.361 L200.34,17.871 Z M233.701,37.039 L225.311,37.039 L225.311,1.445 L233.701,1.445 L233.701,14.818 L246.616,14.818 L246.616,1.445 L255.006,1.445 L255.006,37.039 L246.616,37.039 L246.616,21.732 L233.701,21.732 L233.701,37.039 Z M278.504,1.447 L291.876,37.039 L282.977,37.039 L280.69,30.377 L267.774,30.377 L265.539,37.039 L256.692,37.039 L270.012,1.447 L278.504,1.447 Z M278.86,24.326 L274.284,10.752 L269.606,24.326 L278.86,24.326 Z M293.3,1.447 L311.502,1.447 C315.112,1.447 323.604,2.361 323.604,11.565 C323.604,17.565 319.739,19.649 317.401,20.463 L317.401,20.565 C322.332,21.988 322.434,26.615 322.485,29.207 C322.587,33.734 322.587,35.207 323.858,37.039 L315.315,37.039 C313.791,34.801 314.349,33.428 313.893,27.988 C313.536,23.717 309.114,23.92 308.147,23.92 L301.69,23.92 L301.69,37.039 L293.3,37.039 L293.3,1.447 Z M301.69,17.412 L309.366,17.412 C314.095,17.412 314.756,14.666 314.756,12.936 C314.756,9.428 312.672,8.361 309.061,8.361 L301.69,8.361 L301.69,17.412 Z M336.471,11.615 L336.318,11.615 L336.318,37.037 L327.928,37.037 L327.928,1.447 L339.725,1.447 L348.215,25.902 L356.706,1.447 L368.504,1.447 L368.504,37.037 L360.115,37.037 L360.115,11.615 L359.959,11.615 L351.062,37.037 L345.369,37.037 L336.471,11.615 Z" id="Combined-Shape" fill="#000000"></path>
                <polygon id="Fill-12" fill="#F72B2B" points="170.552 25.389 158.918 37.023 152.755 37.033 152.771 30.875 164.404 19.242 152.771 7.609 152.76 1.445 158.918 1.461 170.552 13.096 182.186 1.461 188.347 1.451 188.333 7.609 176.699 19.242 188.333 30.877 188.343 37.039 182.186 37.023"></polygon>
            </g>
        </g>
    </g>
</svg>