<?xml version="1.0" encoding="UTF-8" standalone="no"?>
<svg width="92px" height="65px" viewBox="0 0 92 65" version="1.1" xmlns="http://www.w3.org/2000/svg" xmlns:xlink="http://www.w3.org/1999/xlink">
    <!-- Generator: Sketch 39.1 (31720) - http://www.bohemiancoding.com/sketch -->
    <title>Images/Man_woman</title>
    <desc>Created with Sketch.</desc>
    <defs></defs>
    <g id="Main-page" stroke="none" stroke-width="1" fill="none" fill-rule="evenodd">
        <g id="Main" transform="translate(-554.000000, -1669.000000)">
            <g id="Group-10" transform="translate(250.000000, 1517.000000)">
                <g id="Group-5" transform="translate(0.000000, 103.000000)">
                    <g id="Images/Man_woman" transform="translate(304.000000, 49.000000)">
                        <path d="M34.6478093,37.9287188 C34.3079953,37.5889048 33.9534197,37.262063 33.5894504,36.9468516 C35.2953795,35.2658233 36.318251,32.9394615 36.318251,30.4441619 L36.318251,29.2231276 C37.1777017,28.9055304 37.9608098,28.4055759 38.6216504,27.7445861 C39.8309053,26.5353313 40.4968156,24.9279617 40.4968156,23.2186031 C40.4968156,20.4950212 38.7952106,18.1254185 36.318251,17.2139296 L36.318251,16.7336571 C36.318251,8.0012266 29.2137669,0.896742455 20.4811873,0.896742455 C11.7487569,0.896742455 4.64427271,8.0012266 4.64427271,16.7336571 L4.64427271,17.2136313 C2.16746229,18.1242256 0.466155507,20.4938284 0.466155507,23.2186031 C0.466155507,24.9279617 1.13206577,26.5353313 2.34027688,27.7435424 C3.00037199,28.4049794 3.78362917,28.9053813 4.64427271,29.2231276 L4.64427271,30.4441619 C4.64427271,32.9397597 5.66744248,35.2662706 7.37366978,36.947448 C3.00931838,40.7314764 0.44781539,46.274814 0.44781539,52.0944462 L0.44781539,63.5547827 C0.44781539,64.2958427 1.04856605,64.8967425 1.78977516,64.8967425 L39.1723013,64.8967425 C39.9135104,64.8967425 40.514261,64.2958427 40.514261,63.5547827 L40.514261,52.0944462 C40.5145593,46.7428597 38.430943,41.7120017 34.6478093,37.9287188 L34.6478093,37.9287188 Z M32.2084247,39.3094463 L25.9493752,44.2342896 L23.2984082,41.439882 C23.6598427,41.3502689 24.018146,41.2449997 24.3710814,41.1203465 L30.2344018,39.0477642 C30.6183515,38.9120771 30.9881359,38.7507438 31.3442026,38.5686845 C31.6395828,38.8060623 31.9285515,39.0526847 32.2084247,39.3094463 L32.2084247,39.3094463 Z M37.812896,23.2186031 C37.812896,24.2110569 37.4261134,25.1444645 36.7238211,25.8467568 C36.5961858,25.9743921 36.4603497,26.0906952 36.318251,26.1971574 L36.318251,20.2393033 C37.2331694,20.9216153 37.812896,22.0089009 37.812896,23.2186031 L37.812896,23.2186031 Z M20.4813364,3.580662 C26.4450057,3.580662 31.4934583,7.57060662 33.0999333,13.0209017 C31.5507153,13.6869611 29.8646174,14.0366161 28.1656963,14.0366161 C24.0552735,14.0366161 20.2087695,12.0126426 17.8761452,8.62180845 C17.4878715,8.05803623 17.1441807,7.45937307 16.8549138,6.84207157 C16.5404479,6.17109169 15.7413854,5.88227212 15.0702564,6.19658892 C14.3992765,6.51120394 14.1103078,7.31026643 14.4247738,7.98124631 C14.6087713,8.37369499 14.8117055,8.75958298 15.0299976,9.13667368 C13.092655,10.7231683 10.7446727,11.6796875 8.24907487,11.898576 C10.1797077,7.03143701 14.9350167,3.580662 20.4813364,3.580662 L20.4813364,3.580662 Z M4.23914996,25.8467568 C3.53685768,25.1444645 3.15007505,24.2110569 3.15007505,23.2186031 C3.15007505,22.0080063 3.72950346,20.9205716 4.64427271,20.2387069 L4.64427271,26.1974556 C4.50232319,26.0908444 4.36648704,25.9745412 4.23914996,25.8467568 L4.23914996,25.8467568 Z M7.32819226,16.7336571 C7.32819226,16.0171997 7.38664206,15.3143109 7.49742829,14.6287186 C10.8319001,14.5520778 13.9969868,13.3993343 16.5792156,11.3386806 C19.4463872,14.7324968 23.6757971,16.7205357 28.1656963,16.7205357 C30.0238633,16.7205357 31.8706981,16.3763976 33.5952655,15.7166007 C33.621061,16.0522397 33.6343315,16.3914573 33.6343315,16.7336571 L33.6343315,30.4441619 C33.6343315,33.1684893 31.9085712,35.6090668 29.3399111,36.5171263 L23.4765906,38.5897086 C21.5450632,39.2724679 19.4174605,39.2724679 17.4860822,38.5897086 L11.6227617,36.5171263 C9.05410163,35.6090668 7.32834136,33.1686384 7.32834136,30.4441619 L7.32834136,16.7336571 L7.32819226,16.7336571 Z M10.7281219,39.0476151 L16.5914424,41.1203465 C16.9452724,41.245447 17.3046194,41.3508654 17.6672468,41.4406276 L15.0170253,44.2342896 L8.75782674,39.3092972 C9.03591062,39.0537285 9.32368644,38.8072552 9.61951402,38.5691319 C9.97513336,38.7508929 10.3446196,38.911928 10.7281219,39.0476151 L10.7281219,39.0476151 Z M3.13188404,52.0944462 C3.13188404,48.134472 4.50187587,44.3221134 6.92232398,41.2801888 L14.3187589,47.0999701 C14.8634455,47.5285026 15.6450625,47.4718421 16.1222038,46.9689054 L19.141315,43.7863733 L19.141315,62.2126738 L3.13188404,62.2126738 L3.13188404,52.0944462 L3.13188404,52.0944462 Z M37.8306397,62.2128229 L21.8252346,62.2128229 L21.8252346,43.7865224 L24.8443459,46.9690545 C25.1069227,47.2457964 25.4616474,47.3874478 25.8183104,47.3874478 C26.1098139,47.3874478 26.4026594,47.292765 26.6477907,47.1001193 L34.0478042,41.2775049 C36.4988192,44.3395589 37.8307888,48.1141935 37.8307888,52.0945953 L37.8307888,62.2128229 L37.8306397,62.2128229 Z M33.63791,51.5622846 L26.9281112,51.5622846 C26.1869021,51.5622846 25.5861514,52.1631844 25.5861514,52.9042444 C25.5861514,53.6453044 26.1869021,54.2462042 26.9281112,54.2462042 L33.63791,54.2462042 C34.3791192,54.2462042 34.9798698,53.6453044 34.9798698,52.9042444 C34.9798698,52.1631844 34.3789701,51.5622846 33.63791,51.5622846 Z" id="Combined-Shape" fill="#F72B2B"></path>
                        <path d="M72.7740469,0 C62.4220859,0 54,8.4219462 54,18.7740469 L54,62.7423883 C54,63.4370092 54.5629908,64 55.2576117,64 L90.2904821,64 C90.985103,64 91.5480938,63.4370092 91.5480938,62.7423883 L91.5480938,18.7740469 C91.5482336,8.4219462 83.1261476,0 72.7740469,0 L72.7740469,0 Z M89.0330101,61.4847766 L56.5152234,61.4847766 L56.5152234,52.0023842 C56.5152234,47.9841751 58.0205847,44.128617 60.6509494,41.1757447 C61.8542044,46.2430815 66.4147237,50.0249994 71.8448116,50.0249994 L73.7032822,50.0249994 C79.1357456,50.0249994 83.6976623,46.2398676 84.8985417,41.1693169 C87.5708269,44.1526514 89.0328704,47.9647519 89.0328704,52.0023842 L89.0328704,61.4847766 L89.0330101,61.4847766 Z M62.9432961,39.0544332 C64.5252319,40.9422481 66.4259024,42.5559037 68.5652397,43.8069479 C69.8632347,44.5652877 71.318571,44.9443878 72.7739072,44.9443878 C74.2292434,44.9443878 75.6848591,44.5652877 76.9831336,43.8068081 C79.1445489,42.5434673 81.0339009,40.9235237 82.5986494,39.0496822 C82.6236619,39.0686861 82.6488141,39.0874106 82.6738266,39.1065542 C82.3693448,43.7910181 78.4634823,47.509776 73.703422,47.509776 L71.8449513,47.509776 C67.0846115,47.509776 63.178749,43.7908784 62.8744069,39.1062747 C62.897044,39.0886682 62.9205194,39.0719 62.9432961,39.0544332 L62.9432961,39.0544332 Z M75.7142034,41.6351922 C73.9007273,42.6945204 71.6475063,42.6945204 69.8344494,41.6354716 C66.9814873,39.9671798 64.6048807,37.5715692 62.9614616,34.7075682 C61.3170644,31.8406326 60.4480547,28.5795057 60.4480547,25.2764584 L60.447915,22.217807 L70.0821989,22.217807 C73.5158981,22.217807 76.7225285,20.8548354 79.0695114,18.4771108 C80.1210146,20.7873435 82.4195096,22.4149726 85.1000391,22.4942021 L85.1000391,25.2765982 C85.1000391,31.9828825 81.5034093,38.2510988 75.7142034,41.6351922 L75.7142034,41.6351922 Z M86.0500949,38.7270349 C85.4401532,38.1170933 84.7829812,37.5493514 84.0964649,37.0293989 C86.3498257,33.5846606 87.6152625,29.5080424 87.6152625,25.2765982 L87.615542,17.7462987 C87.615542,17.0516778 87.0525511,16.488687 86.3579303,16.488687 C85.6633094,16.488687 85.1003186,17.0516778 85.1003186,17.7462987 L85.1003186,19.9768827 C82.8067142,19.8694267 80.9736753,17.9700138 80.9736753,15.6502791 C80.9736753,15.0903625 80.6035183,14.5977979 80.0655399,14.4421335 C79.5279808,14.2866088 78.9518549,14.5051538 78.652683,14.9785748 C76.7847104,17.9366172 73.580735,19.7025836 70.0821989,19.7025836 L60.4477753,19.7025836 L60.4477753,17.7462987 C60.4477753,17.0516778 59.8847844,16.488687 59.1901636,16.488687 C58.4955427,16.488687 57.9325518,17.0516778 57.9325518,17.7462987 L57.9328313,25.2765982 C57.9328313,29.0178533 58.9172618,32.7117384 60.7797848,35.9591713 C60.9899457,36.3254158 61.2121237,36.6838351 61.4429653,37.0361061 C61.2291714,37.1981983 61.018731,37.3637838 60.8130416,37.5341204 C60.7972516,37.5466965 60.7820205,37.5599713 60.7667894,37.5733858 C59.0476342,39.0065042 57.6139569,40.7256594 56.5152234,42.6335961 L56.5152234,18.7740469 C56.5152234,9.80895219 63.8089522,2.51522343 72.7741866,2.51522343 C81.7392814,2.51522343 89.0330101,9.80895219 89.0330101,18.7740469 L89.0330101,42.601038 C88.2214314,41.2028532 87.2235863,39.9005264 86.0500949,38.7270349 L86.0500949,38.7270349 Z" id="Shape" fill="#F72B2B"></path>
                        <polyline id="Path-2" stroke="#F62B2B" stroke-width="2" points="14.5 30.3000488 24.5 30.3000488 26.5 32.3000488 26.5 34.3000488"></polyline>
                        <polyline id="Path-2" stroke="#F62B2B" stroke-width="2" points="68.5 34.5 74.5 34.5 76.5 36.5 76.5 37.5"></polyline>
                    </g>
                </g>
            </g>
        </g>
    </g>
</svg>