<?xml version="1.0" encoding="UTF-8" standalone="no"?>
<svg width="121px" height="53px" viewBox="0 0 121 53" version="1.1" xmlns="http://www.w3.org/2000/svg" xmlns:xlink="http://www.w3.org/1999/xlink">
    <!-- Generator: Sketch 39.1 (31720) - http://www.bohemiancoding.com/sketch -->
    <title>Group</title>
    <desc>Created with Sketch.</desc>
    <defs></defs>
    <g id="Page-1" stroke="none" stroke-width="1" fill="none" fill-rule="evenodd">
        <g id="Group">
            <path d="M33.2622696,5.51283716 C33.0508846,5.53713884 32.8702246,5.72357655 32.8540418,5.93412929 C32.8540418,5.93412929 32.8540783,6.0146596 32.8540418,6.01514701 C32.8481528,6.09336994 32.3773049,12.362788 32.1682191,18.9940558 C32.1234852,20.4127603 32.0763842,21.2777443 32.0375862,22.0079149 C31.9605285,21.9264979 31.9263706,21.8184138 31.8089786,21.7648617 C31.5621243,21.652251 31.2643962,21.6741893 30.992523,21.7810653 C30.9515723,21.7971288 30.9129519,21.8190256 30.8782193,21.8458794 C30.5536436,22.0965599 30.532063,22.0186896 30.4863206,21.9917113 C30.4405782,21.9647486 30.3883459,21.8944901 30.3883459,21.8944901 C30.309522,21.7101949 30.0983043,21.5914242 29.8984726,21.6190298 C29.8984726,21.6190298 29.9210877,21.6286223 29.8331561,21.5866227 C29.7452245,21.5446232 29.5837414,21.4468575 29.4085992,21.0681093 C29.2748677,20.7789033 29.0808936,20.534922 28.8207512,20.40379 C28.5606089,20.272632 28.246489,20.2877934 28.0042956,20.3875864 C27.519888,20.5871208 27.2140189,21.0364023 27.008246,21.5704192 C26.8144704,22.0732787 26.6236993,22.1008065 26.3713845,22.1051102 C26.2452401,22.1071843 26.0929013,22.0816216 25.9794858,22.040296 C25.8660703,21.9989705 25.7723543,21.9335756 25.7835365,21.9430748 C25.4200165,21.634243 24.9549582,21.5681533 24.6241434,21.651411 C24.29336,21.7346687 24.0742312,21.8743614 23.8240431,21.9430748 C23.6836389,21.9816522 23.3562415,21.931823 22.8769546,21.8134464 C22.3976678,21.6950646 21.7721661,21.5289537 21.0154359,21.5055791 C20.2403648,21.4816238 15.1437487,21.5066161 10.1567074,21.5217826 C5.16977058,21.5371306 0.0295230336,21.5541897 0.0295230336,21.5541897 L0.0295230336,22.4615882 C0.0295230336,22.4615882 5.17071114,22.4445291 10.1567074,22.4291811 C15.1428604,22.4138331 20.3742897,22.4098924 20.9992374,22.4291811 C21.6423693,22.4490401 22.1653711,22.5853107 22.6484516,22.7046413 C23.1315843,22.823972 23.5795506,22.9525011 24.0691104,22.8180661 C24.4488341,22.7137879 24.7112494,22.5782641 24.8529077,22.5426059 C24.9945817,22.5069322 24.9830599,22.472954 25.17949,22.6398271 C25.3141777,22.7542475 25.4691919,22.8261964 25.6693633,22.8990838 C25.8695347,22.9719713 26.1165406,23.033384 26.3878442,23.0287122 C26.930441,23.019379 27.5745134,22.6711505 27.8738195,21.8944641 C28.0179964,21.5203308 28.2706509,21.2684629 28.3636929,21.2301448 C28.4102138,21.2109598 28.3994079,21.223456 28.4126802,21.2301448 C28.4259525,21.2368336 28.4833892,21.2758777 28.5596422,21.4407909 C28.8044639,21.970193 29.128052,22.2711901 29.425059,22.4130035 C29.5689694,22.4817117 29.6063774,22.4510364 29.718983,22.4616141 C29.7861649,22.5717256 29.8015534,22.6610343 30.012907,22.785685 C30.3272933,22.971095 30.8348491,22.941099 31.3192359,22.6236495 L31.3192359,22.6398531 C31.4323065,22.5954165 31.4300178,22.6133052 31.4172106,22.607446 C31.4044033,22.6015868 31.4280479,22.6146015 31.4661979,22.6884637 C31.542498,22.836183 31.6014657,23.1454503 31.6948055,23.4338267 C31.705763,23.4676856 31.7476595,23.6811057 31.7927801,23.8551188 C31.8040616,23.8986221 31.822925,23.934664 31.8417675,23.9847472 C31.86061,24.0348356 31.8528138,24.0961965 31.9724004,24.2115968 C32.0321937,24.269297 32.161144,24.3500865 32.3316408,24.3412251 C32.5021377,24.3323586 32.6207366,24.2423809 32.6745522,24.1791897 C32.7821884,24.0528073 32.7880565,23.9834405 32.8051851,23.919933 C32.8737046,23.6659081 32.890504,23.3302796 32.935818,22.575013 C32.9811319,21.8197464 33.0302133,20.6936908 33.08278,19.026411 C33.1759526,16.0711958 33.258894,15.5510231 33.3930331,13.2418756 C33.416547,13.5506088 33.4181616,13.5460304 33.4420204,13.8576102 C33.5939203,15.8412351 33.7557536,17.8494375 33.8829064,19.3994814 C33.9464828,20.1743478 34.0012441,20.8379413 34.0461975,21.327729 C34.0686716,21.5726021 34.0786677,21.7736868 34.0951849,21.9272342 C34.1117021,22.0808075 34.1223774,22.1665178 34.1441722,22.2675086 C34.1937448,22.4972308 34.2143586,23.0624415 34.258476,23.5476145 C34.280532,23.7901958 34.3173026,24.0146965 34.3891089,24.2281633 C34.425012,24.3348993 34.4540752,24.460001 34.6013873,24.5846413 C34.7486994,24.7092919 35.0574529,24.7317435 35.2218936,24.6494554 C35.3765368,24.5719895 35.436769,24.4828104 35.4668302,24.4226058 C35.4968915,24.3624012 35.5049646,24.318058 35.5158176,24.2767739 C35.5375235,24.194211 35.5369279,24.1147541 35.5484758,24.0337208 C35.5715769,23.8716594 35.5966114,23.6828791 35.6301214,23.4990298 C35.6636313,23.3151545 35.7209791,23.1346289 35.7770834,23.0129235 C35.8331876,22.891218 35.8838575,22.8461488 35.9077163,22.8346845 C36.4412732,22.5782848 37.0355484,22.5449807 37.6712603,22.3485782 C37.6779957,22.3465041 37.9204556,22.315497 38.2100949,22.3161711 C38.4997602,22.3166896 38.8613782,22.3315969 39.271461,22.2999675 C40.0916788,22.2366156 41.0965592,22.0194829 41.9657383,21.3115773 C42.7549177,20.6688281 43.0415785,20.3174834 43.1904477,20.1610998 C43.2648771,20.0829235 43.2766864,20.0637385 43.3374097,20.0314714 C43.3981331,19.9992199 43.5259444,19.9585581 43.7619666,19.8856396 C44.1563735,19.7637993 44.4006047,19.8114351 44.562067,19.9018431 C44.723571,19.992277 44.8158867,20.1420392 44.855991,20.2907281 C44.9234916,20.5409627 45.0072691,20.8800186 45.1989023,21.2143042 C45.3905356,21.5486261 45.7232105,21.8761865 46.2113072,22.0407108 C46.5261743,22.1468091 46.6788267,22.2796418 46.9788016,22.4457994 C47.2787504,22.6119571 47.6978051,22.7536668 48.3177888,22.7536668 C49.3729368,22.7536668 50.4182612,22.5167995 50.7181943,22.4457994 L99.6240139,22.4457994 L99.6240139,21.5708081 L51.126814,21.5708081 C51.0145219,21.4931348 50.8665201,21.4686558 50.7349153,21.5059939 C50.7349153,21.5059939 49.3420551,21.8300648 48.3182068,21.8300648 C47.8182904,21.8300648 47.6439321,21.766775 47.4364348,21.6518258 C47.2263771,21.5377529 46.9583184,21.3199772 46.5031934,21.1664973 C46.2215489,21.0716093 46.1029342,20.9461291 45.9968603,20.7615383 C45.8913089,20.5769475 45.8244249,20.3332462 45.751793,20.0646563 C45.6519111,19.69436 45.4154342,19.31556 45.0170091,19.0924437 C44.6185579,18.8693377 44.0675692,18.8143494 43.4820726,18.9952224 C43.2281379,19.0736735 43.068562,19.1381143 42.9105276,19.222072 C42.7525193,19.3060297 42.6191849,19.4243182 42.5186289,19.5299394 C42.3175117,19.7411817 42.1262808,19.9879734 41.3755911,20.5993732 C40.7049218,21.1456271 39.9234759,21.3215587 39.2038454,21.3771433 C38.8440249,21.4049356 38.5042801,21.3940728 38.2077957,21.3933469 C37.911259,21.3928284 37.6809271,21.3897173 37.4076954,21.4743646 C36.9235124,21.6239453 36.2235343,21.6600442 35.4972155,22.0090556 C35.2886836,22.1092687 35.1957722,22.2957417 35.0889877,22.4627548 C35.074571,22.3309435 35.0815364,22.1906908 35.0563294,22.0738698 C35.0606142,22.0937807 35.0393054,21.9761663 35.0236712,21.8308166 C35.0080371,21.685467 34.9805833,21.4896504 34.9583548,21.2474891 C34.9138978,20.7631664 34.8585094,20.0925523 34.7950637,19.3192414 C34.6681669,17.7726197 34.522344,15.7766024 34.3705068,13.7939627 C34.0699518,9.86912744 33.7884588,6.09455733 33.7826587,6.01626181 C33.7825987,6.01522478 33.7826587,5.93524409 33.7826587,5.93524409 C33.7640671,5.68656507 33.5092336,5.48110414 33.2601272,5.51395196 L33.2622696,5.51283716 L33.2622696,5.51283716 Z M100.491181,21.5706785 L100.491181,22.4456698 L101.389308,22.4456698 L101.389308,21.5706785 L100.491181,21.5706785 L100.491181,21.5706785 Z M102.271028,21.5706785 L102.271028,22.4456698 L120.029523,22.4456698 L120.029523,21.5706785 L102.271028,21.5706785 L102.271028,21.5706785 Z" id="Shape" fill="#1B96C2"></path>
            <path d="M36.4183602,51.3592833 C36.5485699,51.3592833 36.6759787,51.3473575 36.8058017,51.345802 L36.7920069,47.053911 C36.666615,47.053911 36.5442172,47.0673924 36.418402,47.0673924 C21.9568183,47.0673924 10.2798054,35.5330619 10.2798054,21.2480179 C10.2798054,14.3300122 13.0235664,8.05755571 17.4891734,3.42463853 L14.3758258,0.472275119 C9.14685241,5.88244387 5.92126504,13.1976308 5.92126504,21.2480698 C5.92126504,37.8539798 19.6074119,51.3596981 36.4182975,51.3596981 L36.4183602,51.3592833 L36.4183602,51.3592833 Z" id="Shape" fill="#177A9A"></path>
            <path d="M28.4899887,43.1667717 L29.6800021,40.0640394 C21.939742,37.4196211 16.3773934,30.2122849 16.2028679,21.6671842 L12.8265824,21.6671842 C13.0009669,31.5982712 19.4878149,40.0163362 28.4899887,43.1948233 L28.4899887,43.1667717 L28.4899887,43.1667717 Z" id="Shape" fill="#1B96C2"></path>
            <path d="M30.4411216,38.0853404 L31.5619518,35.1466139 C25.7127334,33.1663594 21.5298682,27.6955764 21.5298682,21.232307 C21.5298682,17.3020273 23.0833023,13.740307 25.6118326,11.1041849 L23.3148883,8.93088782 C20.2310638,12.1384635 18.3335426,16.4726651 18.3335426,21.2326181 C18.3335426,29.0129116 23.3991204,35.6421053 30.4411216,38.0858589 L30.4411216,38.0853404 L30.4411216,38.0853404 Z" id="Shape" fill="#9ED2E5"></path>
            <path d="M77.4739379,25.1063083 C76.2579642,25.1152001 75.8117787,25.15995 75.0689902,25.3200523 C70.0446735,26.4029889 66.0708832,29.8231849 64.5410622,34.3767367 C63.6554411,37.0122115 63.6463459,40.0234848 64.513348,42.7280417 C66.2049705,48.0050494 70.9090348,51.7819901 76.5656775,52.4045101 C79.0760622,52.6807894 82.0979638,52.1348166 84.4056533,50.9876933 C88.1344752,49.1341059 90.7505924,45.9461702 91.8084107,41.9615926 C92.0723085,40.9675734 92.1129855,40.6171799 92.1563723,39.1187739 C92.1946814,37.7959555 92.1707028,37.198645 92.0455157,36.4805632 C91.5478336,33.6258237 90.314379,31.2910072 88.1994322,29.1949976 C86.1853895,27.1989469 83.8337515,25.926059 81.0460775,25.3262081 C80.1675612,25.1371656 79.7239771,25.1063572 78.0436867,25.1063572 C77.8353748,25.1063572 77.6477168,25.1050869 77.4740119,25.1063572 L77.4739379,25.1063083 L77.4739379,25.1063083 Z M78.142152,28.8223748 C79.8437269,28.8337679 81.0014639,29.1035689 82.4778767,29.8269468 C84.6011009,30.8672812 86.1662975,32.4522596 87.1738608,34.5843248 C87.8525397,36.0203908 87.9837348,36.6769144 87.9837348,38.6301675 C87.9837348,40.080304 87.9541711,40.4541483 87.774339,41.0973831 C86.6528644,45.1088314 83.3898373,48.0409584 79.3738723,48.6486263 C77.7621651,48.8924947 76.2387491,48.7296926 74.6716802,48.1448062 C70.4118306,46.5550399 67.6379521,42.2107862 68.0508314,37.7717524 C68.1504939,36.7007365 68.2599316,36.2048506 68.6205062,35.225195 C69.4654798,32.9293654 71.2151419,31.000931 73.4612444,29.8877038 C75.1029074,29.0740405 76.2614328,28.8094573 78.1418563,28.8220621 L78.142152,28.8223748 L78.142152,28.8223748 Z" id="Shape" fill="#0C4053"></path>
            <path d="M76.0736959,47.2328666 C75.0321366,46.9619419 74.2311114,46.6101707 73.3636709,46.0426427 C72.9327688,45.7607646 72.5904535,45.5199643 72.6029778,45.5075452 C72.6155011,45.4951358 72.8695756,45.5501181 73.1675778,45.6297335 C73.5012414,45.7188854 73.9744168,45.759211 74.3992193,45.7346952 C75.7032871,45.6594378 76.4286341,45.0867897 77.593466,43.2127611 C78.4029557,41.9103644 79.619629,40.6842804 80.6071889,40.175692 C81.4654456,39.733733 82.0313759,39.5670567 83.3854031,39.3574753 C85.2097578,39.0751086 85.8791346,38.6934865 86.4128229,37.6314992 L86.6535542,37.1524685 L86.7235268,37.6151619 C86.7620123,37.8696417 86.7678626,38.5426688 86.7365271,39.1107342 C86.5614525,42.2847949 84.6747914,45.1190149 81.7895637,46.5422808 C80.4656895,47.1953259 79.4649254,47.4231696 77.9465349,47.417131 C77.1282358,47.4139065 76.5514169,47.3571264 76.0736003,47.2328471 L76.0736959,47.2328666 L76.0736959,47.2328666 Z" id="Shape" fill="#F15F00"></path>
            <polygon id="Shape" fill="#0C4053" points="42.6201304 38.7319653 42.6201304 25.5409115 44.640184 25.5409115 46.6602375 25.5409115 46.6602375 31.0136355 46.6602375 36.4863594 51.9567195 36.4610814 57.2532015 36.4358035 57.278664 30.9883868 57.3041256 25.5409702 59.3233909 25.5409702 61.3426561 25.5409702 61.3426561 38.7320239 61.3426561 51.9230777 59.3226025 51.9230777 57.3025489 51.9230777 57.3025489 46.0603872 57.3025489 40.1976966 51.9814322 40.1976966 46.6603154 40.1976966 46.6603154 46.0603872 46.6603154 51.9230777 44.6402618 51.9230777 42.6202082 51.9230777"></polygon>
            <path d="M103.454783,25.0848118 C102.734245,25.0937036 102.036607,25.1564158 101.545586,25.2771862 C100.587933,25.5127296 98.9989392,26.2628999 98.2259978,26.8435994 C96.3573989,28.2477138 95.0023864,30.4514015 94.6600612,32.6390645 C94.5849487,33.1191016 94.5492046,36.2823358 94.5492046,42.6300663 L94.5492046,51.9187178 L96.5199886,51.9187178 L98.4907726,51.9187178 L98.4907726,46.0560273 L98.4907726,40.1933367 L103.664081,40.1933367 L108.837389,40.1933367 L108.837389,46.0560273 L108.837389,51.9187178 L110.811227,51.9187178 L112.785066,51.9187178 L112.757352,42.123139 L112.726558,32.3275602 L112.507919,31.6466282 C111.998078,30.0617475 111.249968,28.8320482 110.106026,27.701526 C108.89498,26.5047555 107.604412,25.7632228 105.964325,25.319808 C105.346534,25.1527897 104.381096,25.0732525 103.454631,25.0846946 L103.454783,25.0848118 L103.454783,25.0848118 Z M103.571799,28.7826062 C103.882779,28.7738219 104.192339,28.7954953 104.498678,28.8497828 C106.604658,29.2229724 108.250558,30.8368441 108.698911,32.9689092 C108.797194,33.4363318 108.834432,34.1055872 108.815927,35.0452788 L108.788213,36.4316097 L103.685754,36.4560376 C99.0713606,36.4789314 98.5798471,36.467035 98.5247637,36.3247329 C98.4912761,36.2381898 98.4876696,35.4801927 98.518605,34.6392093 C98.5827767,32.894668 98.7429886,32.2320863 99.3500295,31.2162774 C100.21747,29.764773 101.892538,28.8300647 103.571843,28.7826746 L103.571799,28.7826062 L103.571799,28.7826062 Z" id="Shape" fill="#0C4053"></path>
        </g>
    </g>
</svg>