<?xml version="1.0" encoding="UTF-8" standalone="no"?>
<svg width="95px" height="47px" viewBox="0 0 95 47" version="1.1" xmlns="http://www.w3.org/2000/svg" xmlns:xlink="http://www.w3.org/1999/xlink">
    <!-- Generator: Sketch 40.1 (33804) - http://www.bohemiancoding.com/sketch -->
    <title>Places_main page</title>
    <desc>Created with Sketch.</desc>
    <defs></defs>
    <g id="Main-page" stroke="none" stroke-width="1" fill="none" fill-rule="evenodd">
        <g id="Main-page-3" transform="translate(-430.000000, -854.000000)" fill="#F62B2B">
            <g id="Group-9" transform="translate(410.000000, 821.000000)">
                <path d="M51,45 L20,45 L20,80 L52,80 L83,80 L115,80 L115,57 L84,57 L84,33 L51,33 L51,45 L51,45 Z M22,47 L51,47 L51,80 L22,80 L22,47 L22,47 Z M84,59 L113,59 L113,80 L84,80 L84,59 L84,59 Z M53,35 L82,35 L82,80 L53,80 L53,35 L53,35 Z M67.3078613,43.9399414 L67.3078613,53 L68.838623,53 L68.838623,42.3212891 L67.3078613,42.3212891 L65.791748,43.4272461 L65.791748,45.0532227 L67.3078613,43.9399414 L67.3078613,43.9399414 Z M33.8835449,64 L39.9699707,64 L39.9699707,62.4692383 L35.8903809,62.4692383 L39.3254395,58.1625977 C39.7551291,57.6157199 39.9699707,56.9907262 39.9699707,56.2875977 C39.960205,55.408687 39.6647978,54.6835966 39.0837402,54.1123047 C38.5124483,53.5361299 37.7678269,53.2431641 36.8498535,53.2333984 C36.0295369,53.2431641 35.3386259,53.5312472 34.7770996,54.0976562 C34.2204562,54.6787138 33.9226076,55.4135698 33.8835449,56.3022461 L35.4069824,56.3022461 C35.4606936,55.8139624 35.6315904,55.4355482 35.9196777,55.1669922 C36.1979994,54.8984362 36.547117,54.7641602 36.967041,54.7641602 C37.4406762,54.7739258 37.8068835,54.9277329 38.0656738,55.2255859 C38.3146985,55.523439 38.439209,55.8725566 38.439209,56.2729492 C38.439209,56.4243172 38.4196779,56.5854484 38.3806152,56.7563477 C38.3220212,56.9370126 38.212159,57.1323232 38.0510254,57.3422852 L33.8835449,62.5571289 L33.8835449,64 L33.8835449,64 Z M98.0368652,70.1733398 L98.6813965,70.1733398 C99.1550317,70.1733398 99.5456528,70.3173814 99.8532715,70.6054688 C100.165773,70.9033218 100.326904,71.3232395 100.33667,71.8652344 C100.326904,72.3974636 100.165773,72.8076157 99.8532715,73.0957031 C99.5456528,73.4033219 99.1672386,73.5571289 98.7180176,73.5571289 C98.2980936,73.5571289 97.9611829,73.442384 97.7072754,73.2128906 C97.4582507,72.993163 97.2653815,72.7050799 97.1286621,72.3486328 L95.5979004,72.3486328 C95.7639168,73.2373091 96.1276827,73.9160133 96.689209,74.3847656 C97.2507352,74.853518 97.89526,75.0878906 98.6228027,75.0878906 C99.5651903,75.078125 100.336667,74.777835 100.937256,74.1870117 C101.54761,73.610837 101.857666,72.8222706 101.867432,71.8212891 C101.867432,71.3720681 101.772218,70.9423849 101.581787,70.5322266 C101.381591,70.1220683 101.056887,69.7705093 100.607666,69.4775391 C101.047121,69.179686 101.352294,68.8403339 101.523193,68.4594727 C101.669678,68.0786114 101.74292,67.6831075 101.74292,67.2729492 C101.733154,66.4623983 101.454837,65.7592803 100.907959,65.1635742 C100.336667,64.5532196 99.5651904,64.2431641 98.5935059,64.2333984 C97.8269005,64.2431641 97.1677274,64.5165989 96.6159668,65.0537109 C96.0544406,65.5957058 95.7346195,66.2622031 95.6564941,67.0532227 L97.1872559,67.0532227 C97.2849126,66.6137673 97.4753404,66.2890635 97.7585449,66.0791016 C98.027101,65.8691396 98.3249495,65.7641602 98.6520996,65.7641602 C99.1062034,65.7739258 99.4772935,65.9179674 99.7653809,66.1962891 C100.053468,66.4843764 100.202393,66.8530251 100.212158,67.3022461 C100.212158,67.7465843 100.068117,68.1079088 99.7800293,68.3862305 C99.4919419,68.6743178 99.0866725,68.8183594 98.564209,68.8183594 L98.0368652,68.8183594 L98.0368652,70.1733398 L98.0368652,70.1733398 Z" id="Places_main-page"></path>
            </g>
        </g>
    </g>
</svg>