<?xml version="1.0" encoding="UTF-8" standalone="no"?>
<svg width="140px" height="140px" viewBox="0 0 140 140" version="1.1" xmlns="http://www.w3.org/2000/svg" xmlns:xlink="http://www.w3.org/1999/xlink">
    <!-- Generator: Sketch 39.1 (31720) - http://www.bohemiancoding.com/sketch -->
    <title>Places_contest</title>
    <desc>Created with Sketch.</desc>
    <defs></defs>
    <g id="Contest" stroke="none" stroke-width="1" fill="none" fill-rule="evenodd">
        <g id="Contest-(collapse)" transform="translate(-650.000000, -278.000000)">
            <g id="Places_contest" transform="translate(650.000000, 278.000000)">
                <circle id="Oval" fill="#F62B2B" cx="70" cy="70" r="70"></circle>
                <path d="M54,58 L23,58 L23,95 L55,95 L86,95 L118,95 L118,70 L87,70 L87,46 L54,46 L54,58 L54,58 Z M25,60 L54,60 L54,93 L25,93 L25,60 L25,60 Z M87,72 L116,72 L116,93 L87,93 L87,72 L87,72 Z M56,48 L85,48 L85,93 L56,93 L56,48 L56,48 Z M70.3078613,56.9399414 L70.3078613,66 L71.838623,66 L71.838623,55.3212891 L70.3078613,55.3212891 L68.791748,56.4272461 L68.791748,58.0532227 L70.3078613,56.9399414 L70.3078613,56.9399414 Z M36.8835449,77 L42.9699707,77 L42.9699707,75.4692383 L38.8903809,75.4692383 L42.3254395,71.1625977 C42.7551291,70.6157199 42.9699707,69.9907262 42.9699707,69.2875977 C42.960205,68.408687 42.6647978,67.6835966 42.0837402,67.1123047 C41.5124483,66.5361299 40.7678269,66.2431641 39.8498535,66.2333984 C39.0295369,66.2431641 38.3386259,66.5312472 37.7770996,67.0976562 C37.2204562,67.6787138 36.9226076,68.4135698 36.8835449,69.3022461 L38.4069824,69.3022461 C38.4606936,68.8139624 38.6315904,68.4355482 38.9196777,68.1669922 C39.1979994,67.8984362 39.547117,67.7641602 39.967041,67.7641602 C40.4406762,67.7739258 40.8068835,67.9277329 41.0656738,68.2255859 C41.3146985,68.523439 41.439209,68.8725566 41.439209,69.2729492 C41.439209,69.4243172 41.4196779,69.5854484 41.3806152,69.7563477 C41.3220212,69.9370126 41.212159,70.1323232 41.0510254,70.3422852 L36.8835449,75.5571289 L36.8835449,77 L36.8835449,77 Z M101.036865,83.1733398 L101.681396,83.1733398 C102.155032,83.1733398 102.545653,83.3173814 102.853271,83.6054688 C103.165773,83.9033218 103.326904,84.3232395 103.33667,84.8652344 C103.326904,85.3974636 103.165773,85.8076157 102.853271,86.0957031 C102.545653,86.4033219 102.167239,86.5571289 101.718018,86.5571289 C101.298094,86.5571289 100.961183,86.442384 100.707275,86.2128906 C100.458251,85.993163 100.265382,85.7050799 100.128662,85.3486328 L98.5979004,85.3486328 C98.7639168,86.2373091 99.1276827,86.9160133 99.689209,87.3847656 C100.250735,87.853518 100.89526,88.0878906 101.622803,88.0878906 C102.56519,88.078125 103.336667,87.777835 103.937256,87.1870117 C104.54761,86.610837 104.857666,85.8222706 104.867432,84.8212891 C104.867432,84.3720681 104.772218,83.9423849 104.581787,83.5322266 C104.381591,83.1220683 104.056887,82.7705093 103.607666,82.4775391 C104.047121,82.179686 104.352294,81.8403339 104.523193,81.4594727 C104.669678,81.0786114 104.74292,80.6831075 104.74292,80.2729492 C104.733154,79.4623983 104.454837,78.7592803 103.907959,78.1635742 C103.336667,77.5532196 102.56519,77.2431641 101.593506,77.2333984 C100.8269,77.2431641 100.167727,77.5165989 99.6159668,78.0537109 C99.0544406,78.5957058 98.7346195,79.2622031 98.6564941,80.0532227 L100.187256,80.0532227 C100.284913,79.6137673 100.47534,79.2890635 100.758545,79.0791016 C101.027101,78.8691396 101.32495,78.7641602 101.6521,78.7641602 C102.106203,78.7739258 102.477293,78.9179674 102.765381,79.1962891 C103.053468,79.4843764 103.202393,79.8530251 103.212158,80.3022461 C103.212158,80.7465843 103.068117,81.1079088 102.780029,81.3862305 C102.491942,81.6743178 102.086673,81.8183594 101.564209,81.8183594 L101.036865,81.8183594 L101.036865,83.1733398 L101.036865,83.1733398 Z" id="Combined-Shape" fill="#FFFFFF"></path>
            </g>
        </g>
    </g>
</svg>