<?xml version="1.0" encoding="utf-8"?>
<!-- Generator: Adobe Illustrator 16.0.0, SVG Export Plug-In . SVG Version: 6.00 Build 0)  -->
<!DOCTYPE svg PUBLIC "-//W3C//DTD SVG 1.1//EN" "http://www.w3.org/Graphics/SVG/1.1/DTD/svg11.dtd">
<svg version="1.1" id="Layer_1" xmlns="http://www.w3.org/2000/svg" xmlns:xlink="http://www.w3.org/1999/xlink" x="0px" y="0px"
	 width="45.203px" height="42.087px" viewBox="0 -0.208 45.203 42.087" enable-background="new 0 -0.208 45.203 42.087"
	 xml:space="preserve">
<title>WHO_logo_white</title>
<desc>Created with Sketch.</desc>
<g id="Main-page">
	<g id="Main-page-3" transform="translate(-681.000000, -2046.000000)">
		<g id="Group-3" transform="translate(0.000000, 2012.000000)">
			<g id="WHO_logo" transform="translate(680.000000, 33.000000)">
				<g id="who">
					<path id="Fill-1" fill="#FFFFFF" d="M17.148,12.021c0,0-0.492,0.322-1.007,1.487c0.103-0.473,0.225-0.793,0.225-0.793
						s-0.532,0.268-0.915,0.077c0.44,0.071,0.812-0.103,1.093-0.416c0.282-0.313,0.311-0.587,0.311-0.587L17.148,12.021"/>
					<path id="Fill-2" fill="#FFFFFF" d="M16.647,11.898c-0.007-0.033-0.071-0.335,0.223-0.831c0.072-0.123,0.119-0.309,0.167-0.506
						c0.062-0.257,0.134-0.549,0.29-0.773c0.252-0.366,0.622-0.837,0.787-1.016c0.679-0.738,1.326-0.879,1.846-0.993
						c0.148-0.033,0.286-0.062,0.415-0.106c0.053-0.017,0.123-0.055,0.219-0.104c0.435-0.226,1.34-0.694,3.088-0.785
						c4.682-0.242,6.532,2.276,6.633,4.029c0.113,1.932-0.762,3.352-2.675,4.341c-0.902,0.468-2.007,0.725-3.073,0.974
						c-0.668,0.155-1.357,0.316-2,0.526c-0.676,0.222-1.108,0.585-1.25,1.048c-0.118,0.391-0.016,0.832,0.281,1.213
						c0.255,0.327,0.598,0.503,1.105,0.698c0.264,0.102,0.508,0.187,0.745,0.27c0.283,0.1,0.554,0.195,0.838,0.309l0.168,0.067
						c0.561,0.223,1.498,0.594,2.218,1.134c0.871,0.654,1.32,1.547,1.203,2.391c-0.114,0.812-0.722,1.469-1.714,1.85
						c-0.486,0.186-0.865,0.314-1.204,0.427c-0.292,0.097-0.553,0.184-0.826,0.292c-0.863,0.338-1.189,0.482-1.135,0.882
						c0.057,0.415,0.532,0.641,1.133,0.927c1.062,0.506,2.517,1.199,2.46,3.539l-0.024,0.957l-0.268-0.92
						c-0.454-1.563-1.615-1.998-2.739-2.418l-0.099-0.037c-1.053-0.394-2.042-0.892-2.152-1.852
						c-0.109-0.971,0.069-1.96,2.094-2.617c1.127-0.364,2.323-0.799,2.278-1.338c-0.055-0.663-1.453-1.104-2.934-1.572
						c-0.423-0.134-0.863-0.273-1.298-0.423c-1.487-0.516-2.217-1.223-2.516-2.441c-0.463-1.873,0.385-3.516,2.269-4.395
						c0.662-0.309,1.758-0.558,2.727-0.775c0.537-0.122,1.044-0.237,1.431-0.351c1.815-0.535,2.452-1.656,2.444-2.454
						c-0.011-1.026-0.889-1.846-2.349-2.193c-0.032-0.007-3.209-0.735-4.641,1.261c-0.377,0.525-1.667,1.311-2.403,1.733
						c-1.176,0.675-1.551,0.353-1.614,0.282l-0.131-0.208L16.647,11.898"/>
					<path id="Stroke-3" fill="none" stroke="#FFFFFF" stroke-width="0.297" d="M16.647,11.898
						c-0.007-0.033-0.071-0.335,0.223-0.831c0.072-0.123,0.119-0.309,0.167-0.506c0.062-0.257,0.134-0.549,0.29-0.773
						c0.252-0.366,0.622-0.837,0.787-1.016c0.679-0.738,1.326-0.879,1.846-0.993c0.148-0.033,0.286-0.062,0.415-0.106
						c0.053-0.017,0.123-0.055,0.219-0.104c0.435-0.226,1.34-0.694,3.088-0.785c4.682-0.242,6.532,2.276,6.633,4.029
						c0.113,1.932-0.762,3.352-2.675,4.341c-0.902,0.468-2.007,0.725-3.073,0.974c-0.668,0.155-1.357,0.316-2,0.526
						c-0.676,0.222-1.108,0.585-1.25,1.048c-0.118,0.391-0.016,0.832,0.281,1.213c0.255,0.327,0.598,0.503,1.105,0.698
						c0.264,0.102,0.508,0.187,0.745,0.27c0.283,0.1,0.554,0.195,0.838,0.309l0.168,0.067c0.561,0.223,1.498,0.594,2.218,1.134
						c0.871,0.654,1.32,1.547,1.203,2.391c-0.114,0.812-0.722,1.469-1.714,1.85c-0.486,0.186-0.865,0.314-1.204,0.427
						c-0.292,0.097-0.553,0.184-0.826,0.292c-0.863,0.338-1.189,0.482-1.135,0.882c0.057,0.415,0.532,0.641,1.133,0.927
						c1.062,0.506,2.517,1.199,2.46,3.539l-0.024,0.957l-0.268-0.92c-0.454-1.563-1.615-1.998-2.739-2.418l-0.099-0.037
						c-1.053-0.394-2.042-0.892-2.152-1.852c-0.109-0.971,0.069-1.96,2.094-2.617c1.127-0.364,2.323-0.799,2.278-1.338
						c-0.055-0.663-1.453-1.104-2.934-1.572c-0.423-0.134-0.863-0.273-1.298-0.423c-1.487-0.516-2.217-1.223-2.516-2.441
						c-0.463-1.873,0.385-3.516,2.269-4.395c0.662-0.309,1.758-0.558,2.727-0.775c0.537-0.122,1.044-0.237,1.431-0.351
						c1.815-0.535,2.452-1.656,2.444-2.454c-0.011-1.026-0.889-1.846-2.349-2.193c-0.032-0.007-3.209-0.735-4.641,1.261
						c-0.377,0.525-1.667,1.311-2.403,1.733c-1.176,0.675-1.551,0.353-1.614,0.282l-0.131-0.208L16.647,11.898L16.647,11.898z"/>
					<path id="Fill-4" fill="#FFFFFF" d="M23.577,24.585c0.256-0.077,0.456-0.157,0.601-0.212l0.078-0.031l0.083-0.031l0.011-0.088
						c0.005-0.036,0.018-0.842,0.078-5.301c0.017-1.282,0.03-2.316,0.032-2.409l0.004-0.175l-0.173,0.025
						c-0.305,0.044-1.232,0.295-1.482,0.391l-0.096,0.037l0.002,0.104c0.002,0.165,0.117,7.742,0.117,7.742l0.002,0.208l0.195-0.07
						C23.029,24.775,23.306,24.675,23.577,24.585"/>
					<path id="Stroke-5" fill="none" stroke="#FFFFFF" stroke-width="0.297" d="M23.577,24.585c0.256-0.077,0.456-0.157,0.601-0.212
						l0.078-0.031l0.083-0.031l0.011-0.088c0.005-0.036,0.018-0.842,0.078-5.301c0.017-1.282,0.03-2.316,0.032-2.409l0.004-0.175
						l-0.173,0.025c-0.305,0.044-1.232,0.295-1.482,0.391l-0.096,0.037l0.002,0.104c0.002,0.165,0.117,7.742,0.117,7.742
						l0.002,0.208l0.195-0.07C23.029,24.775,23.306,24.675,23.577,24.585L23.577,24.585z"/>
					<path id="Fill-6" fill="#FFFFFF" d="M24.341,26.67c0,0.266-0.215,7.535-0.245,7.97c-0.084,1.236-0.381,1.237-0.478,1.238
						c-0.271,0.001-0.445-0.44-0.517-1.316c-0.048-0.574-0.212-6.778-0.188-7.064c0.046-0.53,0.686-0.797,1.236-0.97l0.192-0.06
						V26.67"/>
					<path id="Stroke-7" fill="none" stroke="#FFFFFF" stroke-width="0.297" d="M24.341,26.67c0,0.266-0.215,7.535-0.245,7.97
						c-0.084,1.236-0.381,1.237-0.478,1.238c-0.271,0.001-0.445-0.44-0.517-1.316c-0.048-0.574-0.212-6.778-0.188-7.064
						c0.046-0.53,0.686-0.797,1.236-0.97l0.192-0.06V26.67L24.341,26.67z"/>
					<path id="Fill-8" fill="#FFFFFF" d="M22.58,13.83c0-0.734-0.104-8.228-0.163-8.583c-0.021-0.119-0.051-0.27-0.085-0.443
						c-0.196-0.955-0.523-2.555,0.12-3.343C22.702,1.155,23.071,1,23.552,1c0.494,0,0.871,0.15,1.119,0.448
						c0.567,0.679,0.331,1.977,0.161,2.924c-0.056,0.305-0.104,0.576-0.12,0.781c-0.025,0.365-0.204,7.657-0.204,8.299v0.105
						l-0.098,0.035c-0.262,0.094-0.585,0.156-0.899,0.214c-0.26,0.05-0.518,0.099-0.74,0.167l-0.191,0.058V13.83"/>
					<path id="Stroke-9" fill="none" stroke="#FFFFFF" stroke-width="0.297" d="M22.58,13.83c0-0.734-0.104-8.228-0.163-8.583
						c-0.021-0.119-0.051-0.27-0.085-0.443c-0.196-0.955-0.523-2.555,0.12-3.343C22.702,1.155,23.071,1,23.552,1
						c0.494,0,0.871,0.15,1.119,0.448c0.567,0.679,0.331,1.977,0.161,2.924c-0.056,0.305-0.104,0.576-0.12,0.781
						c-0.025,0.365-0.204,7.657-0.204,8.299v0.105l-0.098,0.035c-0.262,0.094-0.585,0.156-0.899,0.214
						c-0.26,0.05-0.518,0.099-0.74,0.167l-0.191,0.058V13.83L22.58,13.83z"/>
					<polyline id="Fill-10" fill="#FFFFFF" points="19.37,9.393 18.886,9.429 18.297,9.987 18.228,10.293 18.569,10.349 
						19.21,9.656 19.37,9.393 					"/>
					<path id="Fill-11" fill="#FFFFFF" d="M30.333,15.798v-0.176l-0.103,0.133l0.03,0.161L30.333,15.798L30.333,15.798z
						 M30.26,16.65l0.073,0.044l0.088-0.131l0.131-0.235l-0.072,0.014L30.361,16.4l-0.058-0.337l-0.073,0.059l0.059,0.206
						l-0.073,0.16l-0.103-0.029l-0.133,0.089l0.014,0.219L30.26,16.65L30.26,16.65z M30.655,15.842l0.177,0.133l0.206-0.044
						l-0.163-0.044l-0.043-0.176v-0.134l-0.089-0.161l-0.117,0.045l-0.058-0.045l-0.177,0.161l0.28,0.148L30.655,15.842
						L30.655,15.842z M32.093,14.537l0.148,0.146l0.073-0.015l0.118,0.074l-0.03-0.089l-0.294-0.205l-0.19-0.177l0.088,0.266H32.093
						L32.093,14.537z M29.687,17.017l0.073-0.147l-0.322,0.015l-0.147,0.102l0.161,0.059L29.687,17.017L29.687,17.017z
						 M33.107,17.046l0.133,0.235l-0.045,0.089l0.117,0.395l0.103,0.03V17.37l-0.118-0.148l-0.043-0.441l-0.204-0.532l-0.044,0.094
						l0.057,0.307L33.107,17.046L33.107,17.046z M32.255,14.948l0.236,0.366l0.146,0.073l-0.25-0.425L32.255,14.948L32.255,14.948z
						 M32.916,15.975l0.088,0.044l-0.22-0.442l-0.118-0.028l0.118,0.191L32.916,15.975L32.916,15.975z M30.374,12.761
						c-0.011,0.03-0.021,0.062-0.034,0.093l0.11,0.082l0.118-0.044L30.374,12.761L30.374,12.761z M10.837,28.088l-0.016-0.141
						l-0.158-0.19l-0.094,0.032l0.173,0.22l-0.016,0.063l0.142,0.159l0.095,0.204l0.079-0.032l-0.079-0.172L10.837,28.088
						L10.837,28.088z M30.79,8.789l0.164,0.119l0.39,0.135l0.134,0.239h0.104l-0.029-0.255l-0.12-0.09l0.03-0.134l-0.239-0.105
						l-0.089,0.091l-0.121-0.061l0.06-0.134L30.79,8.789L30.79,8.789z M26.002,31.74l0.014,0.007
						c-0.003-0.007-0.005-0.013-0.006-0.021L26.002,31.74L26.002,31.74z M37.996,26.641c-0.781,1.845-1.897,3.504-3.315,4.93
						l-2.053-2.053c1.151-1.16,2.058-2.508,2.692-4.009c0.639-1.507,0.97-3.107,0.996-4.754h2.902
						C39.194,22.794,38.786,24.773,37.996,26.641L37.996,26.641z M32.21,29.1l0.016-0.105l0.147-0.131l-0.132-0.661l0.03-0.176
						l-0.148-0.279l-0.088-0.089l0.088-0.014l-0.117-0.161l-0.28-0.015v0.22l-0.102,0.087l0.075,0.177l-0.119,0.338l-0.089,0.058
						l0.035,0.069l-1.139-1.14c1.737-1.754,2.711-4.062,2.76-6.523h2.947c-0.049,3.249-1.33,6.297-3.622,8.607L32.21,29.1
						L32.21,29.1z M30.136,31.211l0.005-0.014l0.103-0.176l-0.103-0.265l0.382-0.322l-0.029-0.22l-0.278-0.147l0.278-0.543
						l0.322-0.529l-0.38-0.47l-0.134,0.044l-0.175-0.044l-0.162-0.352l-0.073,0.03l0.088-0.338l0.056-0.256
						c0.064-0.059,0.13-0.117,0.193-0.177l1.271,1.271l0.006,0.013l0.009,0.002l0.798,0.798
						C31.645,30.167,30.913,30.732,30.136,31.211L30.136,31.211z M29.804,26.132l-0.488,0.385l-0.069,0.056L29.202,26.5h-0.235
						l-0.337,0.073l-0.323-0.132h-0.163l-0.248-0.19l-0.161,0.014l-0.148-0.133l-0.235-0.015l-0.116-0.161l-0.104-0.039
						c0.008-0.005,0.015-0.009,0.022-0.015l0.141,0.025v-0.073l0.336,0.059l0.118,0.073l0.367,0.059l0.028,0.087h0.295l0.397,0.119
						l0.113,0.187l0.239-0.012l0.175-0.19l0.148-0.294l0.219-0.573l-0.043-0.102l0.102-0.104l0.089-0.351l-0.059-0.147l0.073-0.118
						l-0.103-0.132l-0.029-0.352l-0.249,0.058l-0.148,0.207l-0.22-0.015l0.029,0.263l-0.175,0.221l-0.147-0.073l-0.133,0.117
						l-0.337,0.03l-0.013-0.013c0.073-0.082,0.144-0.166,0.215-0.252h0.15l0.164-0.03l0.16-0.175l0.029-0.14l0.162-0.007
						l0.307-0.456l0.25-0.528l0.66-0.307l-0.014-0.178l-0.089-0.087l0.044-0.059l0.206,0.102l0.441,0.089l0.352-0.146l0.572-0.118
						l-0.146-0.411l-0.25-0.249l-0.308-0.014l-0.397-0.956l-0.059,0.045l-0.145-0.117l0.117-0.074l-0.006-0.034h2.144
						c-0.048,2.402-1,4.655-2.695,6.367l-0.064-0.063l0.018-0.074l0.075-0.367l-0.075-0.572l-0.132-0.338l-0.088,0.088l-0.161,0.235
						V26.132L29.804,26.132z M27.939,17.854l0.25-0.089l-0.278-0.191l0.161-0.191l-0.03-0.102l0.265-0.117l-0.249-0.294
						l-0.295,0.265l-0.044,0.191l-0.19-0.089l-0.206,0.029l-0.058-0.131l-0.003-0.002l0.476-0.474l0.04,0.05l0.411,0.015l0.14-0.168
						c0.198,0.233,0.378,0.48,0.539,0.741l-0.004-0.001l-0.205,0.44l-0.324-0.176l-0.087,0.014l0.087,0.176l0.104,0.074l-0.104,0.25
						l-0.043-0.118L27.939,17.854L27.939,17.854z M27.934,16.462l0.165-0.164c0.06,0.062,0.119,0.127,0.175,0.193l-0.187,0.159
						l-0.161-0.015l-0.059-0.059l0.131-0.088L27.934,16.462L27.934,16.462z M30.314,14.083c0.22,0.228,0.427,0.466,0.62,0.712
						l-0.118,0.064l-0.131,0.029l0.206,0.06l0.096-0.084c0.093,0.119,0.18,0.24,0.267,0.362h-0.1v0.059l0.104,0.029l0.307,0.484
						l0.087,0.043c0.036,0.062,0.07,0.125,0.104,0.187v0.196l-0.205,0.22l-0.058-0.161l-0.177-0.029l0.074,0.19l-0.132,0.132
						l0.322,0.118l0.133,0.191l0.263,0.074l0.015,0.117l0.235,0.059l0.045,0.366l0.141-0.02c0.083,0.237,0.153,0.478,0.218,0.723
						l-0.007,0.002l-0.148,0.25l-0.204,0.102l-0.148,0.425l-0.382,0.221l-0.131-0.235l0.116-0.558l0.177-0.131l-0.588-0.456
						l-0.307,0.162l-0.278,0.572l-0.294-0.162l-0.09-0.234l0.162-0.074l0.074,0.103l0.131-0.043l-0.042-0.176l-0.191-0.06
						l0.014,0.118h-0.133l-0.145-0.22l-0.338-0.338l-0.397-0.28l-0.368-0.028l-0.037,0.051c-0.236-0.387-0.511-0.746-0.822-1.074
						L30.314,14.083L30.314,14.083z M31.785,15.594l-0.006,0.034c-0.012-0.019-0.024-0.039-0.037-0.059L31.785,15.594L31.785,15.594
						z M31.199,19.644l0.411-0.264l0.498-0.043l0.133-0.28l0.161-0.088l0.221-0.382l0.054-0.196
						c0.017,0.072,0.031,0.145,0.048,0.217l-0.088,0.229l0.029,0.059l-0.117,0.235l0.014,0.117l-0.233,0.324l0.043,0.204
						l0.088,0.015l0.235-0.367v-0.22l0.117-0.03l0.013-0.018c0.067,0.453,0.104,0.912,0.105,1.377h-2.219l-0.057-0.038l0.016-0.176
						l0.19-0.072l0.147-0.206l0.352-0.044V19.85L31.199,19.644L31.199,19.644z M30.476,13.92l0.254,0.278l0.131-0.41l-0.206-0.03
						v-0.016l0.642-0.642l0.421,0.436l0.405-0.03l0.134,0.225l0.045,0.344l0.809,0.48l0.224-0.03l0.54,0.614l0.12,0.314l0.375,0.391
						l0.433-0.017l0.193-0.407c0.717,1.587,1.098,3.321,1.102,5.113h-2.946c-0.003-0.559-0.054-1.111-0.149-1.651l0.133-0.206h0.074
						l0.161-0.69l-0.117-0.03l0.03-0.117l-0.294,0.015l-0.059-0.074l-0.059,0.132l0.177,0.147l-0.133,0.045l-0.05,0.13
						c-0.07-0.282-0.153-0.561-0.248-0.835l0.166-0.251l-0.044-0.293l-0.147-0.029l-0.058-0.322l0.088-0.074l-0.162-0.221
						l-0.279,0.03l-0.093-0.062c-0.061-0.118-0.125-0.233-0.192-0.35h0.285l-0.058-0.146l0.19-0.059v-0.146l-0.132-0.014
						l-0.191,0.146l-0.059-0.058l0.161-0.25l-0.131-0.088l-0.161,0.235l-0.196-0.098c-0.155-0.237-0.323-0.468-0.5-0.692l0.005-0.06
						l-0.024,0.032c-0.194-0.242-0.398-0.475-0.616-0.701L30.476,13.92L30.476,13.92z M34.763,9.634
						c1.378,1.408,2.467,3.035,3.233,4.844c0.811,1.918,1.224,3.955,1.227,6.055H36.32c-0.003-1.707-0.34-3.363-1-4.923
						c-0.063-0.152-0.132-0.301-0.201-0.448l0.075-0.158l0.163,0.105l0.061-0.18l-0.974-1.588l-0.209-0.059l-1.439-1.648v-0.033
						L34.763,9.634L34.763,9.634z M9.209,26.641c-0.789-1.868-1.198-3.847-1.223-5.886h2.904c0.019,1.286,0.228,2.542,0.622,3.75
						l-0.217,0.145l-0.569-0.316L10.6,24.461l-0.157-0.079l-0.095,0.079l0.062,0.205l-0.33-0.016l-0.19-0.11l0.017-0.174
						L9.86,24.225H9.765l0.015,0.157l-0.015,0.095l-0.079-0.032l-0.237,0.111l0.158,0.125l-0.205-0.047l-0.095,0.111l0.11,0.047
						H9.274v0.236l0.065,0.127l0.078,0.062H9.291l0.064,0.206L9.48,25.47l0.046,0.079l0.081,0.143l0.047,0.125L9.37,25.644l0.11,0.3
						l-0.189-0.411v0.268l0.173,0.41l0.143,0.347l0.44,0.868l-0.045-0.173l-0.348-0.836v-0.315l0.173-0.285l0.567,0.678l0.08-0.062
						l-0.094-0.426l0.11,0.078l0.173,0.301l0.285,0.077l0.125,0.19l0.111,0.016l-0.095-0.236l0.095-0.127l0.094,0.331l0.204,0.331
						l0.19-0.031l0.505,0.852l0.284,0.079l0.079-0.348l0.111,0.142l0.425,0.616l0.533,0.141c0.3,0.38,0.619,0.746,0.964,1.093
						l-2.053,2.053C11.103,30.14,9.988,28.483,9.209,26.641L9.209,26.641z M9.209,14.478c0.764-1.805,1.85-3.432,3.227-4.838
						l2.053,2.053c-1.11,1.14-1.987,2.456-2.605,3.917c-0.66,1.56-0.995,3.216-0.998,4.923H7.982
						C7.986,18.433,8.397,16.396,9.209,14.478L9.209,14.478z M14.058,20.755c0.009,0.448,0.049,0.892,0.119,1.328L14.023,22v0.206
						l-0.11-0.048L13.818,22l-0.22,0.095l-0.033,0.19l-0.504,0.773l-0.142,0.03l-0.063,1.294l-0.363,0.174l-0.11-0.048l-0.173,0.078
						l-0.41-0.03l-0.045-0.019c-0.402-1.206-0.624-2.478-0.644-3.782H14.058L14.058,20.755z M16.887,14.09l2.057,2.058
						c-0.473,0.5-0.869,1.077-1.165,1.709l-0.112-0.02l0.093-0.126l-0.236,0.204l-0.188,0.127l-0.048-0.079l-0.332,0.125
						l0.016,0.127l0.174-0.11l0.3-0.017l0.264-0.071c-0.013,0.032-0.029,0.064-0.042,0.097l-0.349,0.243l-0.078-0.079l-0.411,0.299
						l-0.362-0.063l-0.237,0.285l-0.362,0.803l0.062,0.222l-0.299,0.394l-0.048,0.3l-0.004,0.015h-1.305
						C14.281,18.109,15.207,15.83,16.887,14.09L16.887,14.09z M17.918,18.091c0.018-0.039,0.036-0.081,0.054-0.12l0.056-0.008
						l-0.062,0.125L17.918,18.091L17.918,18.091z M18.313,21.89l0.298,0.126l0.206,0.252l0.095-0.062l0.347,0.22l0.125,0.158
						l-0.235-0.095l-0.047,0.095l0.204,0.11l0.221,0.174v-0.111l-0.048-0.173l0.095-0.158l0.111-0.063l-0.221-0.268l0.253,0.127
						l0.158,0.204l0.109,0.283l0.222,0.048l-0.474,0.079l0.174,0.379l0.157,0.016l0.032-0.158l-0.047-0.189l0.204-0.016l0.158-0.269
						l0.063-0.393l0.111-0.048l0.098-0.155c0.151,0.303,0.343,0.581,0.577,0.822l-2.077,2.076c-0.905-0.922-1.523-2.124-1.714-3.463
						l0.119,0.011l0.395,0.394L18.313,21.89L18.313,21.89z M16.105,20.297l0.078-0.521l0.426-0.221l0.505,0.126l0.106,0.192
						c-0.023,0.217-0.035,0.437-0.038,0.66h-0.776l-0.001-0.063L16.105,20.297L16.105,20.297z M16.968,27.115
						c-0.181-0.184-0.354-0.376-0.52-0.573h0.003l0.095-0.331l-0.015-0.378l-0.3-0.521v-0.536l-0.11-0.348l0.078-0.141l-0.315-0.567
						l0.031-0.206l-0.174-0.331l-0.173-0.047l0.285-0.048l-0.08-0.109l-0.189-0.411l-0.331-0.095l0.078-0.267l-0.125-0.426
						l0.158-0.363l0.394-0.032l0.111-0.189l-0.041-0.441h0.25l0.153,0.046l0.189,0.095l-0.005-0.141h0.772
						c0.006,0.198,0.022,0.395,0.046,0.588l-0.009,0.011l-0.173-0.016l-0.252,0.284l0.22,0.047l0.239-0.143
						c0.207,1.364,0.842,2.59,1.768,3.532L16.968,27.115L16.968,27.115z M16.762,27.322l-0.121-0.231
						c0.058,0.06,0.113,0.122,0.171,0.181L16.762,27.322L16.762,27.322z M15.994,26.542l-0.03-0.079l0.157,0.026
						c0.03,0.039,0.06,0.079,0.093,0.117L15.994,26.542L15.994,26.542z M15.063,22.38l-0.33,0.078l-0.142-0.142l-0.095-0.063
						l-0.087-0.115c-0.075-0.454-0.121-0.915-0.13-1.383h1.243l-0.016,0.062l-0.175,0.301l-0.11,0.014l-0.205,0.663l0.19,0.3
						L15.063,22.38L15.063,22.38z M14.729,29.356c-0.221-0.222-0.429-0.453-0.631-0.688l0.193,0.082l0.189-0.109l0.521,0.331
						l0.086,0.026L14.729,29.356L14.729,29.356z M38.199,14.392c-0.797-1.885-1.939-3.58-3.394-5.035s-3.15-2.597-5.036-3.395
						c-1.492-0.631-3.057-1.023-4.667-1.172c-0.012,0.078-0.023,0.151-0.031,0.218c1.59,0.148,3.136,0.533,4.611,1.157
						c1.844,0.781,3.501,1.895,4.925,3.31l-1.82,1.823l-0.005-0.128l-0.151,0.015l-0.179-0.09l-0.27-0.075l0.375-0.061l-0.075-0.104
						h-0.21l0.06-0.165l-0.18-0.449l-0.479-0.584l-0.465-0.3l-0.254-0.149l-0.195,0.045v-0.12L30.31,8.937l-0.177,0.166
						c0.329,0.562,0.5,1.139,0.528,1.653c0.024,0.396,0.005,0.773-0.053,1.132l0.151-0.089l0.481,0.869l-0.331,0.03l0.234,0.242
						l-0.556,0.556l-0.284-0.354l0.027-0.266c-0.077,0.183-0.166,0.361-0.268,0.531l0.036,0.072l0.352,0.044l0.035,0.077l-0.17,0.17
						c-0.098-0.098-0.199-0.193-0.3-0.285c-0.04,0.063-0.083,0.125-0.126,0.186c0.091,0.084,0.182,0.168,0.27,0.255L28.1,15.984
						c-0.168-0.166-0.346-0.321-0.533-0.468c-0.076,0.034-0.152,0.069-0.23,0.101c0.215,0.161,0.418,0.336,0.608,0.523l-0.266,0.265
						L27.676,16.4l0.044-0.146l-0.205,0.059l-0.22-0.03v-0.176l-0.236,0.147l-0.25,0.234l0.119,0.075l0.248-0.163l0.25,0.088v0.045
						l0.168-0.042l-0.577,0.575l-0.677,0.141l-0.192,0.251l-0.131,0.088l-0.015,0.131l0.104-0.014l0.101,0.087l-0.021,0.148
						l-0.049,0.049l-0.165-0.035l-0.389,0.061c-0.075-0.058-0.151-0.112-0.231-0.163l-0.026-0.03l-0.11-0.051
						c-0.137-0.079-0.278-0.144-0.426-0.202l-0.011,0.836c-0.005,0.264-0.01,0.513-0.013,0.755l0.091-0.046l0.079,0.077
						l-0.174,0.173c-0.001,0.108-0.003,0.213-0.005,0.318l0.33-0.329l-0.069,0.231l0.096,0.033l0.071,0.354l0.185,0.185
						l-0.438-0.235l-0.037,0.168c0.575,0.234,1.36,0.58,1.998,1.057c0.964,0.724,1.459,1.727,1.326,2.685
						c-0.096,0.692-0.498,1.281-1.149,1.711l0.019,0.074l-0.133,0.162l-0.235,0.03l-0.087,0.146l-0.456,0.191l-0.411-0.015
						l-0.117,0.176l0.074,0.117l-0.003,0.003c-0.055,0.019-0.11,0.037-0.166,0.056l-0.287,0.03l-0.073-0.118l-0.324,0.044
						l-0.004-0.002c-0.06,0.022-0.118,0.041-0.177,0.063l-0.001,0.226c0,0.068-0.014,0.588-0.035,1.33
						c1.044,0.523,2.336,1.381,2.282,3.656c0,0-0.024,0.414-0.143,0.714l0.002,0.002l0.451,0.132
						c-0.885,0.268-1.805,0.439-2.745,0.506c-0.002,0.075-0.005,0.15-0.007,0.221c0.989-0.067,1.958-0.249,2.898-0.543l0.195,0.066
						l0.205,0.176l0.253-0.097l0.394-0.094l0.161-0.146l0.441-0.191l0.44-0.309l0.499-0.499l0.023-0.06
						c0.893-0.521,1.717-1.147,2.466-1.876l2.053,2.053c-1.406,1.376-3.031,2.464-4.84,3.229c-1.925,0.813-3.97,1.227-6.079,1.227
						c-2.109,0-4.155-0.414-6.081-1.227c-1.809-0.766-3.437-1.854-4.845-3.234l2.053-2.053c1.141,1.112,2.459,1.991,3.922,2.611
						c1.313,0.555,2.694,0.877,4.115,0.969c-0.001-0.072-0.004-0.146-0.006-0.222c-2.967-0.197-5.73-1.426-7.875-3.514l0.438-0.438
						l0.37,0.324l0.774-0.062l0.315-0.316l0.426,0.015l0.394,0.047l0.205-0.157l-0.016-0.189l-0.22-0.252l-0.268-0.521l-0.268-0.11
						l-0.169-0.324l0.102-0.102c1.568,1.515,3.563,2.433,5.71,2.638c-0.002-0.075-0.004-0.149-0.005-0.222
						c-2.086-0.205-4.024-1.1-5.548-2.573l2.059-2.058c0.542,0.516,1.173,0.937,1.869,1.24c0.015-0.074,0.035-0.146,0.059-0.219
						c-0.658-0.29-1.257-0.688-1.772-1.176l2.078-2.078c0.324,0.294,0.708,0.52,1.13,0.665l-0.003-0.233
						c-0.361-0.136-0.689-0.335-0.972-0.589l0.137-0.137l0.072-0.003l0.127-0.125l0.277,0.035l0.162-0.09l0.18-0.018l-0.006-0.37
						l-0.635-0.206l-0.023,0.021l-0.26,0.044l-0.188,0.26l-0.081,0.332l0.004,0.02c-0.257-0.289-0.462-0.623-0.595-0.992
						l0.018-0.097c-0.189-0.085-0.364-0.177-0.526-0.275l-0.142,0.07l-0.158-0.094l-0.235,0.094l-0.128-0.109l0.143-0.144
						l0.188-0.036c-0.65-0.483-1.044-1.102-1.247-1.923c-0.121-0.494-0.158-0.973-0.116-1.43l-0.292,0.109l-0.184,0.021
						c0.191-0.381,0.423-0.738,0.686-1.069c0.095-0.257,0.215-0.505,0.367-0.738c-0.007,0.006-0.015,0.012-0.021,0.018l-2.058-2.058
						c1.438-1.423,3.255-2.322,5.224-2.604c-0.001-0.073-0.001-0.148-0.002-0.222c-2.028,0.283-3.899,1.206-5.378,2.67l-0.499-0.499
						c0,0.003-0.002,0.004-0.002,0.005c-0.04,0.081-0.07,0.151-0.095,0.21l0.442,0.442c-1.72,1.783-2.669,4.118-2.675,6.6h-2.949
						c0.007-3.269,1.264-6.345,3.539-8.684l0.811,0.811c0.056,0.007,0.119,0.01,0.185,0.005c0.039-0.003,0.077-0.009,0.116-0.017
						L14.8,11.691c0.642-0.637,1.34-1.192,2.084-1.668c0.041-0.125,0.099-0.249,0.168-0.367c-0.871,0.524-1.678,1.152-2.408,1.878
						l-2.053-2.052c1.426-1.42,3.085-2.536,4.931-3.317c1.467-0.62,3.003-1.005,4.584-1.155l-0.033-0.218
						c-1.599,0.151-3.154,0.543-4.636,1.17c-1.887,0.798-3.581,1.94-5.036,3.395s-2.598,3.15-3.396,5.035
						c-0.826,1.954-1.244,4.029-1.244,6.167c0,2.139,0.418,4.213,1.244,6.166c0.798,1.887,1.941,3.581,3.396,5.036
						s3.149,2.597,5.036,3.396c1.952,0.825,4.027,1.244,6.166,1.244c2.137,0,4.213-0.419,6.166-1.244
						c1.886-0.799,3.581-1.941,5.036-3.396s2.597-3.149,3.394-5.036c0.826-1.953,1.245-4.027,1.245-6.166
						C39.444,18.421,39.025,16.346,38.199,14.392L38.199,14.392z M32.241,21.846l-0.411,0.147l0.102,0.161l0.294,0.03L32.241,21.846
						L32.241,21.846z M21.005,21.598c-0.045-0.017-0.088-0.036-0.13-0.053l-0.023,0.282L21.005,21.598L21.005,21.598z
						 M21.204,21.675c-0.066-0.023-0.131-0.049-0.193-0.074l0.014,0.179L21.204,21.675L21.204,21.675z M16.108,13.31
						c0.013-0.099,0.031-0.183,0.054-0.258l-0.13-0.128c-0.095,0.02-0.192,0.032-0.287,0.026L16.108,13.31L16.108,13.31z
						 M22.162,17.931l-0.013-0.04c0.005-0.004,0.011-0.008,0.017-0.01L22.162,17.931L22.162,17.931z M22.145,17.537l0.018,0.099
						c-0.194,0.097-0.376,0.216-0.547,0.349c-0.001,0.23,0.089,0.475,0.262,0.699c0.076,0.096,0.163,0.178,0.273,0.256l0.313-0.135
						l-0.024-1.343l-0.105,0.011l0.031-0.157l0.07-0.107l-0.002-0.136l-0.068,0.053l-0.141,0.221L22.145,17.537L22.145,17.537z
						 M24.594,30.046v0.009c0.005-0.001,0.009-0.001,0.014-0.001C24.603,30.051,24.599,30.049,24.594,30.046L24.594,30.046z
						 M16.578,22.616l-0.064,0.047l-0.046,0.063l-0.112-0.236l-0.046,0.048l0.046,0.204l0.064,0.127l-0.047,0.079l0.125,0.157
						l0.08,0.174l0.063-0.016l0.015-0.268l-0.063-0.142L16.578,22.616L16.578,22.616z M16.451,21.196l0.127,0.331l-0.08,0.11
						l0.033,0.173l-0.047,0.254l-0.095,0.063l0.157,0.41l0.047-0.016l-0.047-0.363l0.127-0.616l-0.095-0.315L16.451,21.196
						L16.451,21.196z M25.018,23.241l0.008,0.001c-0.004,0.002-0.01,0.006-0.016,0.009L25.018,23.241L25.018,23.241z M24.842,23.726
						l0.029,0.117l-0.013,0.053c0.479-0.234,0.546-0.37,0.541-0.432c-0.017-0.188-0.296-0.383-0.697-0.572
						c-0.002,0.143-0.005,0.27-0.006,0.385l0.08,0.086c-0.027,0.011-0.055,0.02-0.083,0.029c-0.001,0.088-0.003,0.168-0.004,0.238
						c0.047-0.016,0.095-0.031,0.14-0.05L24.842,23.726L24.842,23.726z M26.603,16.753h0.222l0.043-0.088l-0.19-0.045l-0.075-0.116
						l-0.234,0.014l0.118,0.161v0.191L26.603,16.753L26.603,16.753z M26.267,17.017l-0.104,0.073l-0.043-0.059l-0.28,0.47
						l0.25-0.043l0.016-0.177l0.19-0.191l0.146-0.131l-0.088-0.118L26.267,17.017L26.267,17.017z M25.239,16.826l-0.294,0.015
						l-0.088,0.146h-0.06l-0.006,0.475l0.302-0.136L25.239,16.826L25.239,16.826z M27.322,11.76
						c-0.769-0.324-1.582-0.546-2.42-0.659c-0.001,0.074-0.003,0.149-0.004,0.222c0.797,0.111,1.572,0.321,2.306,0.627
						C27.248,11.888,27.288,11.825,27.322,11.76L27.322,11.76z"/>
					<path id="Fill-12" fill="#FFFFFF" d="M18.481,42.762l1.159,0.117c0,0,1.482-3.259,5.211-3.414
						c2.394-0.101,4.488,1.097,7.037,1.282c3.062,0.222,5.154-0.426,6.906-2.093c-1.853,1.02-4.039,0.581-6.566,0
						c-1.643-0.377-3.329-0.536-4.578-0.522C21.851,38.188,18.481,42.762,18.481,42.762"/>
					<path id="Fill-13" fill="#FFFFFF" d="M35.983,32.008c-0.542,0.543-1.271,1.257-1.976,2.774
						c-0.687,1.474-0.694,2.067-1.361,3.139c1.517-0.567,2.638,0.527,6.46-0.888c1.77-0.654,3.028-2.32,3.61-3.768
						c-1.358,1.231-2.46,1.855-4.079,2.094c-1.595,0.235-2.616,0.339-3.95,1.125c0.836-0.89,1.15-1.387,1.595-2.564
						c0.477-1.263,0.4-2.349,0.941-3.323C36.835,31.09,36.526,31.467,35.983,32.008"/>
					<path id="Fill-14" fill="#FFFFFF" d="M37.911,30.123c-0.398,2.073-0.282,3.804-1.341,5.131
						c1.411-1.173,2.787-1.166,4.682-2.015c2.261-1.111,3.455-3.056,4.081-5.885c-0.501,1.248-1.788,2.429-3.218,3.322
						c-1.22,0.762-2.523,1.136-3.426,2.25c0.523-0.629,0.66-0.934,0.777-1.634c0.368-1.919-0.243-3.007,0.047-5.01
						C39.218,27.111,38.167,28.789,37.911,30.123"/>
					<path id="Fill-15" fill="#FFFFFF" d="M40.057,24.036c-0.145,3.248,1.184,3.914,0.228,6.901
						c0.835-1.203,1.829-1.564,3.114-2.694c1.598-1.413,2.918-3.549,2.797-6.435c-0.301,0.808-1.254,2.354-2.301,3.454
						c-1.047,1.098-1.928,2.415-2.381,3.32c1.045-3.588-0.824-4.954-1.049-7.106C40.405,22.288,40.109,23.496,40.057,24.036"/>
					<path id="Fill-16" fill="#FFFFFF" d="M40.68,20.346c-0.285-1.054-0.162-1.68-0.407-2.861c0.43,1.054,2.941,2.923,2.678,6.52
						c0.143-0.66,0.656-2.657,1.388-4.054c0.575-1.098,1.16-2.195,1.021-3.819c0.662,2.141,0.627,3.375,0.34,4.448
						c-0.289,1.072-1.006,1.896-1.623,2.746c-0.404,0.56-1.264,1.652-1.674,2.669C42.435,23.792,41.051,21.726,40.68,20.346"/>
					<path id="Fill-17" fill="#FFFFFF" d="M39.879,15.542c-0.471-0.902-0.653-1.647-1.265-2.79c0.378,0.491,0.705,0.753,1.644,1.55
						c1.294,1.096,2.277,2.328,2.789,4.377c0.037-1.276,0.195-2.04,0.455-3.463c0.234-1.282,0.173-2.747-0.418-4.368
						c1.142,1.382,2.125,4.106,1.568,5.937c-0.439,1.739-1.191,2.618-1.412,3.846C42.475,18.176,40.527,16.778,39.879,15.542"/>
					<path id="Fill-18" fill="#FFFFFF" d="M40.5,13.268c-0.572-0.46-2.006-1.354-2.708-2.177c-0.699-0.823-1.054-1.608-1.548-2.334
						c1.034,0.952,1.598,1.234,2.654,1.881c0.956,0.547,2.25,1.282,2.772,2.439c-0.313-0.869-0.47-2.019-0.574-2.988
						c-0.157-1.442-0.746-2.32-1.178-2.85c1.41,1.133,2.264,2.091,2.642,4.131c0.378,2.043-0.053,3.585,0.091,4.684
						C41.904,14.57,41.07,13.729,40.5,13.268"/>
					<path id="Fill-19" fill="#FFFFFF" d="M40.755,11.136c-0.628-1.883-1.284-3.006-2.563-4.081
						c-1.677-1.408-3.455-2.068-4.16-2.407c1.372,0.978,1.3,1.825,3.125,3.546C38.585,9.539,39.589,9.645,40.755,11.136"/>
					<path id="Fill-20" fill="#FFFFFF" d="M28.724,42.762l-1.161,0.117c0,0-1.481-3.259-5.21-3.414
						c-2.393-0.101-4.487,1.097-7.036,1.282c-3.063,0.222-5.153-0.426-6.907-2.093c1.855,1.02,4.039,0.581,6.568,0
						c1.643-0.377,3.327-0.536,4.577-0.522C25.355,38.188,28.724,42.762,28.724,42.762"/>
					<path id="Fill-21" fill="#FFFFFF" d="M11.221,32.008c0.544,0.543,1.271,1.257,1.978,2.774c0.685,1.474,0.692,2.067,1.359,3.139
						c-1.515-0.567-2.638,0.527-6.462-0.888c-1.768-0.654-3.026-2.32-3.608-3.768c1.359,1.231,2.46,1.855,4.081,2.094
						c1.595,0.235,2.615,0.339,3.95,1.125c-0.838-0.89-1.152-1.387-1.597-2.564c-0.477-1.263-0.399-2.349-0.941-3.323
						C10.371,31.09,10.679,31.467,11.221,32.008"/>
					<path id="Fill-22" fill="#FFFFFF" d="M9.295,30.123c0.396,2.073,0.28,3.804,1.34,5.131c-1.412-1.173-2.788-1.166-4.682-2.015
						c-2.262-1.111-3.455-3.056-4.081-5.885c0.502,1.248,1.787,2.429,3.217,3.322c1.22,0.762,2.523,1.136,3.427,2.25
						c-0.524-0.629-0.661-0.934-0.779-1.634c-0.367-1.919,0.244-3.007-0.046-5.01C7.986,27.111,9.039,28.789,9.295,30.123"/>
					<path id="Fill-23" fill="#FFFFFF" d="M7.148,24.036c0.145,3.248-1.185,3.914-0.228,6.901c-0.837-1.203-1.827-1.564-3.112-2.694
						c-1.599-1.413-2.92-3.549-2.8-6.435c0.302,0.808,1.256,2.354,2.302,3.454c1.046,1.098,1.928,2.415,2.38,3.32
						c-1.045-3.588,0.826-4.954,1.051-7.106C6.798,22.288,7.096,23.496,7.148,24.036"/>
					<path id="Fill-24" fill="#FFFFFF" d="M6.525,20.346c0.283-1.054,0.163-1.68,0.408-2.861c-0.432,1.054-2.943,2.923-2.682,6.52
						c-0.139-0.66-0.654-2.657-1.386-4.054c-0.575-1.098-1.158-2.195-1.02-3.819c-0.66,2.141-0.628,3.375-0.339,4.448
						c0.286,1.072,1.004,1.896,1.62,2.746c0.405,0.56,1.266,1.652,1.674,2.669C4.768,23.792,6.153,21.726,6.525,20.346"/>
					<path id="Fill-25" fill="#FFFFFF" d="M7.104,15.877c0.604-0.89,0.875-1.982,1.486-3.125c-0.377,0.491-0.705,0.753-1.644,1.55
						c-1.292,1.096-2.275,2.328-2.787,4.377c-0.038-1.276-0.195-2.04-0.456-3.463c-0.236-1.282-0.174-2.747,0.418-4.368
						c-1.141,1.382-2.126,4.106-1.569,5.937c0.441,1.739,1.192,2.618,1.413,3.846C4.73,18.176,6.315,17.041,7.104,15.877"/>
					<path id="Fill-26" fill="#FFFFFF" d="M6.704,13.268c0.573-0.46,2.005-1.354,2.707-2.177c0.7-0.823,1.057-1.608,1.549-2.334
						c-1.034,0.952-1.599,1.234-2.653,1.881c-0.957,0.547-2.249,1.282-2.773,2.439c0.313-0.869,0.471-2.019,0.575-2.988
						c0.157-1.442,0.746-2.32,1.177-2.85C5.875,8.372,5.02,9.33,4.644,11.37c-0.376,2.043,0.053,3.585-0.091,4.684
						C5.302,14.57,6.132,13.729,6.704,13.268"/>
					<path id="Fill-27" fill="#FFFFFF" d="M6.448,11.136C7.076,9.253,7.732,8.13,9.012,7.055c1.677-1.408,3.456-2.068,4.159-2.407
						c-1.37,0.978-1.299,1.825-3.125,3.546C8.619,9.539,7.614,9.645,6.448,11.136"/>
				</g>
			</g>
		</g>
	</g>
</g>
</svg>
